<?xml version="1.0" encoding="UTF-8"?>
<svg version="1.1" xmlns="http://www.w3.org/2000/svg" width="280" height="280">
<path d="M0 0 C0 0.66 0 1.32 0 2 C-1.175625 2.1546875 -1.175625 2.1546875 -2.375 2.3125 C-5.33045181 2.77595022 -5.33045181 2.77595022 -7 6 C-7.45276748 8.02249579 -7.45276748 8.02249579 -7.6328125 10.23046875 C-7.75849609 11.43413086 -7.75849609 11.43413086 -7.88671875 12.66210938 C-7.96535156 13.49548828 -8.04398437 14.32886719 -8.125 15.1875 C-8.25455078 16.4549707 -8.25455078 16.4549707 -8.38671875 17.74804688 C-8.5985739 19.83128923 -8.80026777 21.91556042 -9 24 C-6.69 24.33 -4.38 24.66 -2 25 C-2.04125 23.96875 -2.0825 22.9375 -2.125 21.875 C-2.00424851 18.13170373 -1.35127982 15.46265453 0 12 C0.99 12.33 1.98 12.66 3 13 C3.05399736 11.54207116 3.09279177 10.08357288 3.125 8.625 C3.14820313 7.81289063 3.17140625 7.00078125 3.1953125 6.1640625 C3.21370051 3.78657757 3.21370051 3.78657757 1 2 C2.8125 1.3125 2.8125 1.3125 5 1 C6.62109375 2.23828125 6.62109375 2.23828125 8 4 C8.47372382 11.34271928 7.6223907 18.68039892 7 26 C15.10889987 27.58108241 22.86883599 28.32179273 31.125 28.25 C32.23230469 28.24613281 33.33960938 28.24226563 34.48046875 28.23828125 C43.75406789 28.14418611 52.96121142 27.5443675 62.19580078 26.71191406 C74.9326852 25.56752892 74.9326852 25.56752892 81 26 C82.66342837 27.66342837 82.36048097 29.7825709 82.5625 32.0625 C82.64628906 32.98160156 82.73007813 33.90070312 82.81640625 34.84765625 C82.87699219 35.55792969 82.93757812 36.26820312 83 37 C85.31 37.33 87.62 37.66 90 38 C91.10846405 42.19114847 90.84316205 45.5404116 90.22265625 49.8125 C90.13245712 50.4626709 90.042258 51.1128418 89.94932556 51.78271484 C89.56667151 54.54008278 89.16527368 57.2946179 88.76391602 60.04931641 C88.47192379 62.0735689 88.19088044 64.0991585 87.91015625 66.125 C87.73621338 67.32382813 87.56227051 68.52265625 87.38305664 69.7578125 C85.93471648 83.29218431 87.62897934 97.03716902 88.6796875 110.54296875 C88.85468372 112.83861608 89.02924609 115.13429652 89.20339966 117.43000793 C89.66190106 123.45857997 90.12627594 129.48668541 90.59191895 135.51470947 C91.05833682 141.56617468 91.51916064 147.61806539 91.98046875 153.66992188 C92.58396529 161.57879537 93.18874287 169.48756696 93.79777718 177.39601612 C93.95709828 179.46572975 94.11605351 181.53547159 94.27462578 183.60524273 C94.69444447 189.07667517 95.12272686 194.54730196 95.56158447 200.01724243 C95.65386385 201.18087216 95.74614323 202.3445019 95.84121895 203.54339314 C96.01720939 205.76103583 96.19559935 207.97849002 96.37690544 210.19570446 C97.0305911 218.48308251 97.22595714 226.68979857 97 235 C93.50718114 236.0231111 90.10910655 236.28801546 86.484375 236.53515625 C85.23398438 236.62216797 83.98359375 236.70917969 82.6953125 236.79882812 C80.74238281 236.9293457 80.74238281 236.9293457 78.75 237.0625 C77.41924825 237.15396895 76.08851876 237.24576229 74.7578125 237.33789062 C71.50541323 237.56178768 68.25282322 237.7823637 65 238 C64.86722656 238.71027344 64.73445312 239.42054688 64.59765625 240.15234375 C64.42105469 241.07144531 64.24445313 241.99054688 64.0625 242.9375 C63.88847656 243.85402344 63.71445313 244.77054688 63.53515625 245.71484375 C63 248 63 248 62 249 C55.83830194 249.25953221 49.99080676 248.57934084 43.90234375 247.6875 C41.94599967 247.4138041 39.98961823 247.14037524 38.03320312 246.8671875 C34.99429333 246.43651048 31.95590522 246.002661 28.91821289 245.56347656 C25.9557959 245.13741023 22.9917688 244.72433081 20.02734375 244.3125 C19.1455394 244.18125732 18.26373505 244.05001465 17.35520935 243.91479492 C4.21612428 242.10888704 -8.88110226 243.05792334 -22.03303719 244.1417408 C-24.60202874 244.35315962 -27.17154554 244.55671154 -29.74131775 244.75840759 C-36.10854454 245.25955377 -42.47482721 245.77223598 -48.84094238 246.28729248 C-54.25760433 246.72537159 -59.6746588 247.15770966 -65.09243584 247.5817852 C-67.61551469 247.78162051 -70.13780141 247.9899391 -72.66017151 248.19850159 C-74.20838964 248.32036445 -75.75664135 248.44180157 -77.30493164 248.56274414 C-77.99850266 248.62244385 -78.69207367 248.68214355 -79.40666199 248.74365234 C-83.44527951 249.04818325 -87.03676787 248.82964546 -91 248 C-92.53498496 241.65539551 -93.4128547 235.49731991 -94 229 C-94.90355225 228.88406494 -95.80710449 228.76812988 -96.73803711 228.64868164 C-100.07996605 228.21783312 -103.42135601 227.78319576 -106.76245117 227.34594727 C-108.21049465 227.15724163 -109.65873791 226.97006273 -111.10717773 226.78442383 C-113.18527377 226.51781897 -115.26259693 226.24578889 -117.33984375 225.97265625 C-118.59144287 225.81031494 -119.84304199 225.64797363 -121.13256836 225.48071289 C-124 225 -124 225 -125 224 C-125.4363061 218.16498181 -124.82114807 212.38939875 -124.00952148 206.61767578 C-123.8506406 205.43503537 -123.8506406 205.43503537 -123.68855 204.22850323 C-123.33844076 201.63329546 -122.97985459 199.03933722 -122.62109375 196.4453125 C-122.37028752 194.60062856 -122.11999341 192.75587493 -121.87017822 190.91105652 C-121.33999971 187.00400034 -120.80610361 183.09747685 -120.26937866 179.1913147 C-119.43353968 173.10544871 -118.60943601 167.0180252 -117.78637695 160.93041992 C-115.46519995 143.79070494 -113.12210266 126.65575774 -110.609375 109.54296875 C-110.27385827 107.22709591 -109.93863769 104.91118014 -109.60375977 102.59521484 C-109.02268429 98.57737096 -108.41642719 94.56464106 -107.79272461 90.55322266 C-106.01917502 78.64147524 -105.99929322 67.36007289 -106.85768127 55.35699463 C-107.16650283 50.24248327 -107.08696355 45.12118673 -107 40 C-105.02 39.34 -103.04 38.68 -101 38 C-100.91959473 37.38479492 -100.83918945 36.76958984 -100.75634766 36.13574219 C-100.38663896 33.33945757 -100.0059393 30.54477586 -99.625 27.75 C-99.49867187 26.78191406 -99.37234375 25.81382813 -99.2421875 24.81640625 C-99.11328125 23.88183594 -98.984375 22.94726562 -98.8515625 21.984375 C-98.73635254 21.12553711 -98.62114258 20.26669922 -98.50244141 19.38183594 C-97.99439309 16.9734203 -97.19919501 15.1386366 -96 13 C-80.05754603 14.51519713 -64.20765563 16.66423481 -48.34521484 18.8458252 C-44.91207743 19.31733524 -41.47847804 19.78545712 -38.04492188 20.25390625 C-31.36283751 21.16604785 -24.68129781 22.08211489 -18 23 C-17.67 19.04 -17.34 15.08 -17 11 C-15.68 10.67 -14.36 10.34 -13 10 C-12.01124949 8.24577537 -12.01124949 8.24577537 -11.5 6.125 C-10.61088919 3.47668598 -10.05999653 2.06827191 -8.1875 -0.0625 C-5.17618278 -1.35306452 -3.11925888 -0.77981472 0 0 Z M2 16 C2 18.31 2 20.62 2 23 C2.33 23 2.66 23 3 23 C3 20.69 3 18.38 3 16 C2.67 16 2.34 16 2 16 Z " fill="#EDECEA" transform="translate(154,16)"/>
<path d="M0 0 C7.5562162 -0.22483959 14.71865535 0.65114946 22.1875 1.75 C24.74728952 2.11532902 27.30718934 2.4798859 29.8671875 2.84375 C30.52457413 2.93795227 31.18196075 3.03215454 31.85926819 3.12921143 C39.50323398 4.22263452 47.15761782 5.23639631 54.8125 6.25 C56.14283138 6.42668919 57.47315389 6.60344522 58.8034668 6.78027344 C61.86889279 7.18749475 64.93440128 7.59408145 68 8 C67.85287905 9.74241059 67.70250338 11.48454653 67.55078125 13.2265625 C67.46739502 14.19674316 67.38400879 15.16692383 67.2980957 16.16650391 C67.04095221 18.61073596 66.63822351 20.96215165 66.1875 23.375 C65.67388651 27.02300724 65.67388651 27.02300724 67.625 29.875 C70.0454548 32.04067009 71.96915983 32.93511021 75 34 C77.06857488 38.13714977 75.92077551 43.56529149 75.75805664 48.1015625 C75.68851038 50.09602401 75.63418153 52.09099735 75.58007812 54.0859375 C75.35662764 60.67605937 74.96621475 66.69206206 73 73 C68.56029258 71.60466338 66.09484321 69.43871468 63 66 C61.67770811 63.35541621 61.90322806 61.32238699 61.9375 58.375 C61.94652344 57.37210938 61.95554687 56.36921875 61.96484375 55.3359375 C61.97644531 54.56507812 61.98804687 53.79421875 62 53 C61.34 53 60.68 53 60 53 C60 53.99 60 54.98 60 56 C59.01 56.495 59.01 56.495 58 57 C58.66 57.66 59.32 58.32 60 59 C60.40047444 61.32275177 60.7397104 63.65739357 61 66 C55.77073035 64.15437542 50.51746089 61.39682612 47 57 C46.32650839 55.33607955 45.6590841 53.66967972 45 52 C44.34 51.67 43.68 51.34 43 51 C43 51.99 43 52.98 43 54 C42.01 54 41.02 54 40 54 C41.6490317 57.10087759 41.6490317 57.10087759 44.125 57.8125 C48.21055292 59.50001099 51.73528151 62.01881785 55 65 C55 65.66 55 66.32 55 67 C56.7015625 67.2784375 56.7015625 67.2784375 58.4375 67.5625 C64.91926733 69.18870853 70.06623415 73.31767962 73.9375 78.6875 C76.37995151 86.30220178 77.30660457 94.0282812 77 102 C74.03 101.01 71.06 100.02 68 99 C68.28211877 100.6266848 68.57602375 102.25132896 68.875 103.875 C69.03742188 104.77992188 69.19984375 105.68484375 69.3671875 106.6171875 C69.83044703 109.16505988 69.83044703 109.16505988 72 111 C72.0625 113.3125 72.0625 113.3125 71 116 C68.81887402 117.92022575 66.47387209 119.48208893 64 121 C63.64808594 120.46632813 63.29617187 119.93265625 62.93359375 119.3828125 C62.43988281 118.63773437 61.94617188 117.89265625 61.4375 117.125 C60.89867188 116.30644531 60.35984375 115.48789063 59.8046875 114.64453125 C58.58612311 112.85888603 57.31842807 111.105938 56.0078125 109.38671875 C55.36585937 108.53722656 54.72390625 107.68773437 54.0625 106.8125 C53.45535156 106.03519531 52.84820312 105.25789063 52.22265625 104.45703125 C50.6325748 101.26162795 51.13149913 99.39058816 52 96 C53.85625 95.5978125 53.85625 95.5978125 55.75 95.1875 C59.07604609 94.33829674 61.65211545 93.64137012 64 91 C64.33425735 88.37374861 64.33425735 88.37374861 64 86 C62.02 85.67 60.04 85.34 58 85 C58.01160156 84.34773438 58.02320312 83.69546875 58.03515625 83.0234375 C58.08470994 78.2238086 57.99413751 73.72215315 57 69 C55.35 69.66 53.7 70.32 52 71 C49.39841136 68.5284908 47.14130392 65.87968458 45 63 C45 62.34 45 61.68 45 61 C40.78577758 63.88341534 39.23924145 66.04303419 38 71 C34.7 70.34 31.4 69.68 28 69 C28 73.29 28 77.58 28 82 C26.06125 82.309375 24.1225 82.61875 22.125 82.9375 C17.92545472 83.53894738 17.92545472 83.53894738 14 85 C14.33 86.98 14.66 88.96 15 91 C15.66 91 16.32 91 17 91 C18.70680947 92.62553283 20.37660195 94.29115995 22 96 C21.34 97.65 20.68 99.3 20 101 C19.34 101 18.68 101 18 101 C18 102.32 18 103.64 18 105 C23.61978285 106.57303177 28.93750998 106.93395775 34.3125 104.5 C39.53900854 102.37396263 44.42888207 102.75300462 50 103 C50 103.99 50 104.98 50 106 C50.60328125 106.22429687 51.2065625 106.44859375 51.828125 106.6796875 C54.66234919 108.40265113 55.37142854 110.13809517 56.75 113.125 C57.17796875 114.03507812 57.6059375 114.94515625 58.046875 115.8828125 C58.36140625 116.58148438 58.6759375 117.28015625 59 118 C46.99777855 117.78943471 46.99777855 117.78943471 43.75 114.4375 C43.1725 113.633125 42.595 112.82875 42 112 C41.67 113.65 41.34 115.3 41 117 C42.41152344 117.29003906 42.41152344 117.29003906 43.8515625 117.5859375 C45.09679687 117.84632813 46.34203125 118.10671875 47.625 118.375 C49.46964844 118.75785156 49.46964844 118.75785156 51.3515625 119.1484375 C54.65820196 119.92022273 57.80141713 120.86819375 61 122 C59.67794221 124.89238935 58.55662057 126.47431288 56.3125 128.875 C49.27566681 136.92692648 45.54336634 147.39804046 42.7265625 157.55078125 C42 160 42 160 41 161 C29.69459273 160.91552293 18.23968366 158.85749416 7.04858398 157.41601562 C3.78237569 156.99612736 0.51527741 156.58372513 -2.75195312 156.171875 C-4.82818186 155.90669479 -6.90435587 155.64108574 -8.98046875 155.375 C-9.9574321 155.25205566 -10.93439545 155.12911133 -11.94096375 155.00244141 C-13.28926018 154.82720947 -13.28926018 154.82720947 -14.66479492 154.6484375 C-15.85174202 154.49640869 -15.85174202 154.49640869 -17.06266785 154.34130859 C-19 154 -19 154 -21 153 C-20.47065377 148.11067463 -19.93743177 143.22179173 -19.40087891 138.33325195 C-19.21951909 136.67613684 -19.03915124 135.01891281 -18.85986328 133.36157227 C-17.79572367 123.53165694 -16.59619611 113.76060063 -15 104 C-11.89836932 84.34415528 -9.40682234 64.62939166 -7.01855469 44.87573242 C-6.89238266 43.84329407 -6.76621063 42.81085571 -6.63621521 41.74713135 C-6.3962906 39.7835255 -6.15940279 37.81954563 -5.92591858 35.85516357 C-5.76499977 34.54325043 -5.76499977 34.54325043 -5.60083008 33.20483398 C-5.50852615 32.43799789 -5.41622223 31.6711618 -5.32112122 30.88108826 C-5 29 -5 29 -4 27 C-3.722179 25.22561835 -3.48978092 23.44400871 -3.28125 21.66015625 C-3.15363281 20.59732422 -3.02601562 19.53449219 -2.89453125 18.43945312 C-2.76433594 17.32505859 -2.63414063 16.21066406 -2.5 15.0625 C-2.24243525 12.86554919 -1.98214155 10.66891611 -1.71875 8.47265625 C-1.60466797 7.49562744 -1.49058594 6.51859863 -1.37304688 5.51196289 C-1 3 -1 3 0 0 Z " fill="#FEFDFC" transform="translate(66,43)"/>
<path d="M0 0 C8.04978789 0.47351693 15.83307812 1.3836937 23.77685547 2.70019531 C32.90362779 4.19137005 42.07144853 5.36931758 51.24194336 6.55395508 C58.85842564 7.54675229 66.43362911 8.6773057 74 10 C73.88324623 12.10464033 73.75606366 14.20870232 73.625 16.3125 C73.55539063 17.48425781 73.48578125 18.65601563 73.4140625 19.86328125 C73.15791548 22.98948926 72.65248114 26.01279218 72.06176758 29.09277344 C71.04533969 34.59469837 70.27907868 40.10025105 69.59765625 45.65234375 C69.4744249 46.63255997 69.35119354 47.61277618 69.22422791 48.62269592 C68.83411914 51.72728004 68.44788784 54.83232659 68.0625 57.9375 C66.32883906 71.88312613 64.48685508 85.79566103 62.35250854 99.68582153 C61.36007709 106.20102106 60.4339415 112.72620929 59.5 119.25 C59.34041809 120.3610762 59.34041809 120.3610762 59.1776123 121.49459839 C57.62272131 132.33777205 56.16559982 143.18783004 54.90039062 154.06933594 C54.79404297 154.96555664 54.68769531 155.86177734 54.578125 156.78515625 C54.48950195 157.55738525 54.40087891 158.32961426 54.30957031 159.12524414 C54 161 54 161 53 163 C45.35621258 163.22577371 38.21381693 162.60132345 30.6875 161.3125 C19.41901894 159.4814655 8.13277235 157.90807105 -3.1875 156.4375 C-4.4086702 156.27849213 -4.4086702 156.27849213 -5.6545105 156.11627197 C-9.63609671 155.5981526 -13.6179574 155.08220259 -17.60009766 154.56835938 C-22.68116416 153.91266661 -27.76113821 153.24869144 -32.84106445 152.58422852 C-36.89379994 152.05427799 -40.94687879 151.52699145 -45 151 C-44.46286183 146.04221473 -43.76060042 141.4607497 -42.25 136.6875 C-41.94578125 135.68074219 -41.6415625 134.67398438 -41.328125 133.63671875 C-38.58854883 128.19785429 -32.74329469 127.08141103 -27.3125 125.1875 C-20.71357275 122.79574579 -14.78836636 120.02861445 -9 116 C-8.41863281 115.61328125 -7.83726562 115.2265625 -7.23828125 114.828125 C-2.67868691 111.47446871 -0.44358114 106.95530996 2 102 C3 100 3 100 4.99609375 99.1484375 C5.80175781 98.89320313 6.60742188 98.63796875 7.4375 98.375 C8.24058594 98.11460937 9.04367188 97.85421875 9.87109375 97.5859375 C12 97 12 97 14 97 C14.99 93.7 15.98 90.4 17 87 C14.03 87.99 14.03 87.99 11 89 C10.93941406 88.31292969 10.87882812 87.62585938 10.81640625 86.91796875 C10.73261719 86.01691406 10.64882812 85.11585938 10.5625 84.1875 C10.48128906 83.29417969 10.40007812 82.40085937 10.31640625 81.48046875 C10.06510233 78.87256441 10.06510233 78.87256441 9 76 C12.25 75.1875 12.25 75.1875 16 75 C17.9375 77.1875 17.9375 77.1875 20 80 C24.52401404 83.49582903 28.34206358 84.259724 34 83.75 C35.6699686 83.52310209 37.3382833 83.28102562 39 83 C37.44277612 78.53935402 36.13154957 77.28322476 32 75 C32 74.34 32 73.68 32 73 C32.93972656 72.58041016 32.93972656 72.58041016 33.8984375 72.15234375 C38.69729457 69.96605319 38.69729457 69.96605319 42.04296875 66.109375 C42.65731445 63.99857735 42.65731445 63.99857735 43 61 C41.35 61 39.7 61 38 61 C38.33 58.03 38.66 55.06 39 52 C37.35 52 35.7 52 34 52 C33.690625 50.081875 33.690625 50.081875 33.375 48.125 C32.88550874 45.92661421 32.88550874 45.92661421 32 44 C28.01218837 41.82483002 24.46504063 41.89616185 20 42 C19.67 41.67 19.34 41.34 19 41 C16.32941149 40.85884839 13.67567762 40.95752893 11 41 C10.67 40.34 10.34 39.68 10 39 C8.68 39 7.36 39 6 39 C5.67 39.99 5.34 40.98 5 42 C4.34 42 3.68 42 3 42 C2.34 44.31 1.68 46.62 1 49 C-1.31 48.34 -3.62 47.68 -6 47 C-5.74424607 49.41913128 -5.47106619 51.83410539 -5.1875 54.25 C-5.11724609 54.93191406 -5.04699219 55.61382812 -4.97460938 56.31640625 C-4.47666789 60.41944408 -3.70640354 62.88578223 -1 66 C-1 66.66 -1 67.32 -1 68 C0.65 68.33 2.3 68.66 4 69 C3.67 70.98 3.34 72.96 3 75 C2.34 75 1.68 75 1 75 C1 74.34 1 73.68 1 73 C0.01 73 -0.98 73 -2 73 C-2.185625 74.1446875 -2.185625 74.1446875 -2.375 75.3125 C-3 78 -3 78 -5 81 C-8 80 -8 80 -9.1875 77.9375 C-9.455625 77.298125 -9.72375 76.65875 -10 76 C-10.99 76 -11.98 76 -13 76 C-16.56670115 68.68601787 -17.56530245 62.77101631 -17.0625 54.6875 C-17.03865234 53.72521484 -17.01480469 52.76292969 -16.99023438 51.77148438 C-16.75418296 47.09895983 -16.58632944 44.72440057 -13.578125 41.0078125 C-12.72734375 40.34523437 -11.8765625 39.68265625 -11 39 C-9.64444707 37.35135455 -8.30368347 35.68996005 -7 34 C-7.99 34.33 -8.98 34.66 -10 35 C-10 34.34 -10 33.68 -10 33 C-10.66 33 -11.32 33 -12 33 C-12 35.31 -12 37.62 -12 40 C-13.485 40.495 -13.485 40.495 -15 41 C-15.6176587 32.1640491 -15.6176587 32.1640491 -13.375 27.9375 C-8.45886501 23.92696883 -2.05145265 24.87897095 4 25 C4 24.34 4 23.68 4 23 C4.66 23 5.32 23 6 23 C6.33 20.69 6.66 18.38 7 16 C4.69 16.33 2.38 16.66 0 17 C0 11.39 0 5.78 0 0 Z " fill="#FEFEFD" transform="translate(158,55)"/>
<path d="M0 0 C0.99 0.33 1.98 0.66 3 1 C3 1.66 3 2.32 3 3 C4.9490625 2.7215625 4.9490625 2.7215625 6.9375 2.4375 C9.15234375 2.12109375 9.15234375 2.12109375 11 2 C11.495 2.495 11.495 2.495 12 3 C13.051875 2.95875 14.10375 2.9175 15.1875 2.875 C19.45875781 3.01504124 21.59503225 3.40573886 25 6 C25.82875572 8.76433652 25.90408734 11.07466386 26 14 C27.65 14 29.3 14 31 14 C31.36923077 21.50769231 31.36923077 21.50769231 29.5 24 C29.005 24.33 28.51 24.66 28 25 C26.515 24.505 26.515 24.505 25 24 C24.505 20.535 24.505 20.535 24 17 C23.34 17 22.68 17 22 17 C21.979375 17.928125 21.95875 18.85625 21.9375 19.8125 C21 23 21 23 17.8125 24.8125 C14.49821852 25.84481718 11.45247199 26.67119314 8 27 C7.67 26.67 7.34 26.34 7 26 C6.34 26.99 5.68 27.98 5 29 C4.01 29 3.02 29 2 29 C1.566875 30.093125 1.13375 31.18625 0.6875 32.3125 C-0.49715394 35.07296721 -1.52722858 37.17229938 -4 39 C-4.66 39 -5.32 39 -6 39 C-6 39.99 -6 40.98 -6 42 C-5.01 42 -4.02 42 -3 42 C-2.505 41.01 -2.505 41.01 -2 40 C-1.9456035 42.37531394 -1.90614136 44.74935883 -1.875 47.125 C-1.85824219 47.79015625 -1.84148437 48.4553125 -1.82421875 49.140625 C-1.78152722 53.49516056 -2.40003783 56.95600114 -4 61 C-5.65 60.67 -7.3 60.34 -9 60 C-9.495 60.99 -9.495 60.99 -10 62 C-10.99 62 -11.98 62 -13 62 C-12.34 64.97 -11.68 67.94 -11 71 C-20.14871434 80.14871434 -31.56957992 84.10802472 -44 87 C-42.42914327 83.14426075 -39.98996592 80.85216023 -37 78 C-35.89872003 76.9151121 -34.79987886 75.82774455 -33.703125 74.73828125 C-33.13722656 74.17689453 -32.57132813 73.61550781 -31.98828125 73.03710938 C-31.41464844 72.46798828 -30.84101563 71.89886719 -30.25 71.3125 C-29.66089844 70.73177734 -29.07179687 70.15105469 -28.46484375 69.55273438 C-25.35093236 66.56844684 -25.35093236 66.56844684 -23 63 C-25.475 63.495 -25.475 63.495 -28 64 C-31.04157942 58.77228537 -32.50610724 55.07328688 -32 49 C-29.36 49.66 -26.72 50.32 -24 51 C-24 47.04 -24 43.08 -24 39 C-23.34 39.66 -22.68 40.32 -22 41 C-21.34 39.68 -20.68 38.36 -20 37 C-17 38 -17 38 -15.9375 40 C-15.628125 40.66 -15.31875 41.32 -15 42 C-14.34 42.33 -13.68 42.66 -13 43 C-11.92474806 40.34771188 -10.90543849 37.71631546 -10 35 C-9.01 35 -8.02 35 -7 35 C-7 35.66 -7 36.32 -7 37 C-6.34 37 -5.68 37 -5 37 C-4.67 35.02 -4.34 33.04 -4 31 C-4.7425 30.95875 -5.485 30.9175 -6.25 30.875 C-10.17874462 29.62494489 -11.08293396 27.56026551 -13 24 C-14.59210206 19.22369383 -14.08709667 13.98386484 -14 9 C-11.69 9.66 -9.38 10.32 -7 11 C-6.773125 9.9275 -6.54625 8.855 -6.3125 7.75 C-4.86488057 3.61394449 -3.74271562 2.19085792 0 0 Z " fill="#F7EEDD" transform="translate(166,93)"/>
<path d="M0 0 C0 0.66 0 1.32 0 2 C-1.175625 2.1546875 -1.175625 2.1546875 -2.375 2.3125 C-5.33045181 2.77595022 -5.33045181 2.77595022 -7 6 C-7.45276748 8.02249579 -7.45276748 8.02249579 -7.6328125 10.23046875 C-7.71660156 11.03291016 -7.80039063 11.83535156 -7.88671875 12.66210938 C-7.96535156 13.49548828 -8.04398438 14.32886719 -8.125 15.1875 C-8.21136719 16.03248047 -8.29773438 16.87746094 -8.38671875 17.74804688 C-8.5985739 19.83128923 -8.80026777 21.91556042 -9 24 C-6.69 24.33 -4.38 24.66 -2 25 C-2.04125 23.96875 -2.0825 22.9375 -2.125 21.875 C-2.00424851 18.13170373 -1.35127982 15.46265453 0 12 C0.99 12.33 1.98 12.66 3 13 C3.05399736 11.54207116 3.09279177 10.08357288 3.125 8.625 C3.14820313 7.81289063 3.17140625 7.00078125 3.1953125 6.1640625 C3.21370051 3.78657757 3.21370051 3.78657757 1 2 C2.8125 1.3125 2.8125 1.3125 5 1 C6.61914062 2.23681641 6.61914062 2.23681641 8 4 C8.52581376 11.28836292 7.43445414 18.40220679 6.5 25.625 C5.42584989 34.29640976 4.69448062 42.70476493 4.9921875 51.4375 C5 54 5 54 4 56 C6.31 55.67 8.62 55.34 11 55 C10.67 57.31 10.34 59.62 10 62 C9.34 62 8.68 62 8 62 C8 62.66 8 63.32 8 64 C5.38073273 65.30963364 3.6007974 64.92345749 0.6875 64.75 C-3.22792145 64.73973677 -4.69083645 64.81450187 -8.125 66.875 C-10.69627207 71.16045345 -10.89477205 75.07341883 -11 80 C-10.34 79.67 -9.68 79.34 -9 79 C-8.59270772 76.67843403 -8.25561323 74.3431213 -8 72 C-6.35 72.33 -4.7 72.66 -3 73 C-4.67401978 76.95677402 -7.13149285 79.84464213 -10 83 C-10.66 83 -11.32 83 -12 83 C-12.08803772 86.49983803 -12.14073608 89.99938638 -12.1875 93.5 C-12.21263672 94.48226562 -12.23777344 95.46453125 -12.26367188 96.4765625 C-12.32689235 102.79860963 -11.41898299 107.18414728 -9 113 C-9.02636087 115.49469703 -9.43856685 117.5501099 -10 120 C-11.75692466 116.81319726 -12.63061165 113.69446147 -13.5625 110.1875 C-15.73297439 103.57118401 -18.97253202 100.34529421 -25 97 C-26.42049874 96.39585115 -27.85787274 95.8290966 -29.3125 95.3125 C-33.07147125 93.97456108 -34.42996458 92.92452307 -37 90 C-39.55805279 87.7699027 -41.57606491 86.1637931 -44.75 84.9375 C-45.86375 84.4734375 -45.86375 84.4734375 -47 84 C-47.33 83.01 -47.66 82.02 -48 81 C-47.01 81 -46.02 81 -45 81 C-45 80.01 -45 79.02 -45 78 C-43.125 78.6875 -43.125 78.6875 -41 80 C-40.690625 80.78375 -40.38125 81.5675 -40.0625 82.375 C-37.83756685 87.87189366 -31.968254 90.27233114 -27 93 C-27.2165625 92.45730469 -27.433125 91.91460937 -27.65625 91.35546875 C-27.9346875 90.64003906 -28.213125 89.92460938 -28.5 89.1875 C-28.7784375 88.47980469 -29.056875 87.77210937 -29.34375 87.04296875 C-30 85 -30 85 -30 82 C-29.34 82.33 -28.68 82.66 -28 83 C-28 82.01 -28 81.02 -28 80 C-27.34 80 -26.68 80 -26 80 C-25.95101562 80.74765625 -25.90203125 81.4953125 -25.8515625 82.265625 C-25.77679688 83.25046875 -25.70203125 84.2353125 -25.625 85.25 C-25.55539063 86.22453125 -25.48578125 87.1990625 -25.4140625 88.203125 C-24.85159096 92.00246105 -24.14625626 94.12534663 -21.0546875 96.484375 C-20.33539063 96.90203125 -19.61609375 97.3196875 -18.875 97.75 C-18.15054688 98.17796875 -17.42609375 98.6059375 -16.6796875 99.046875 C-15.84824219 99.51867187 -15.84824219 99.51867187 -15 100 C-13.76679242 92.04114769 -13.66087852 84.03615621 -13.4375 76 C-13.39422635 74.54295843 -13.3506095 73.08592701 -13.30664062 71.62890625 C-13.20046698 68.08604588 -13.09894889 64.54307037 -13 61 C-13.76570313 60.88785156 -14.53140625 60.77570313 -15.3203125 60.66015625 C-18.543556 59.86609189 -20.12036933 58.42869202 -22.12109375 55.80078125 C-24.42840865 51.07334939 -21.7492576 44.96966975 -20.46875 40.21484375 C-19.72103863 36.68190755 -19.54945759 33.11550784 -19.34375 29.515625 C-19 27 -19 27 -17.9765625 25.0625 C-16.63275074 22.22436957 -16.80717792 19.86981551 -16.875 16.75 C-16.90207031 15.13351563 -16.90207031 15.13351563 -16.9296875 13.484375 C-16.95289063 12.66453125 -16.97609375 11.8446875 -17 11 C-16.3709375 10.91492187 -15.741875 10.82984375 -15.09375 10.7421875 C-12.86236324 10.21910022 -12.86236324 10.21910022 -12.09375 8.2578125 C-11.79984375 7.20207031 -11.79984375 7.20207031 -11.5 6.125 C-10.61088919 3.47668598 -10.05999653 2.06827191 -8.1875 -0.0625 C-5.17618278 -1.35306452 -3.11925888 -0.77981472 0 0 Z M2 16 C2 18.31 2 20.62 2 23 C2.33 23 2.66 23 3 23 C3 20.69 3 18.38 3 16 C2.67 16 2.34 16 2 16 Z " fill="#F2EBD9" transform="translate(154,16)"/>
<path d="M0 0 C1.2890625 1.4609375 1.2890625 1.4609375 2.625 3.375 C3.07101563 4.00148438 3.51703125 4.62796875 3.9765625 5.2734375 C5 7 5 7 5 9 C8.465 8.505 8.465 8.505 12 8 C13.97513861 12.93784652 14.26186347 16.7627306 14 22 C13.67 22.66 13.34 23.32 13 24 C14.98 24.33 16.96 24.66 19 25 C19.495 27.475 19.495 27.475 20 30 C14.08315098 34.90153173 14.08315098 34.90153173 9.5625 35.3125 C8.716875 35.209375 7.87125 35.10625 7 35 C6.855625 35.78375 6.71125 36.5675 6.5625 37.375 C6 40 6 40 5 42 C2.5234375 42.30859375 2.5234375 42.30859375 -0.625 42.4375 C-4.3311478 42.67378333 -7.35972121 42.87894288 -10.6875 44.5625 C-14.8512273 46.36940053 -18.51549843 46.63827471 -23 46 C-25.26953125 44.98046875 -25.26953125 44.98046875 -27 44 C-27 42.68 -27 41.36 -27 40 C-26.34 40 -25.68 40 -25 40 C-24.67 38.35 -24.34 36.7 -24 35 C-24.66 34.54625 -25.32 34.0925 -26 33.625 C-26.66 33.08875 -27.32 32.5525 -28 32 C-28 31.34 -28 30.68 -28 30 C-28.66 30 -29.32 30 -30 30 C-30.66 28.02 -31.32 26.04 -32 24 C-27.25645564 21.77343836 -23.27749285 20.53851968 -18 20 C-18 16.04 -18 12.08 -18 8 C-14.59068103 6.86356034 -13.99664544 7.13252236 -10.8125 8.4375 C-10.09707031 8.72496094 -9.38164063 9.01242188 -8.64453125 9.30859375 C-8.10183594 9.53675781 -7.55914062 9.76492187 -7 10 C-6.9175 9.0925 -6.835 8.185 -6.75 7.25 C-5.88469713 3.50035425 -4.29387362 0 0 0 Z " fill="#F8F0DF" transform="translate(111,104)"/>
<path d="M0 0 C0.66 0 1.32 0 2 0 C2.495 3.465 2.495 3.465 3 7 C6.3 6.67 9.6 6.34 13 6 C13 9.1875 13 9.1875 12 13 C9.18799227 15.49681565 5.86095746 18 2 18 C2 18.66 2 19.32 2 20 C3.175625 20.433125 3.175625 20.433125 4.375 20.875 C7 22 7 22 9 24 C9 25.32 9 26.64 9 28 C3.47235579 29.87939903 -0.39389972 30.62930869 -5.82421875 28.17578125 C-9.37479054 26.29256393 -11.90691271 24.4474379 -14 21 C-15.98 21.33 -17.96 21.66 -20 22 C-19.505 22.99 -19.505 22.99 -19 24 C-18.77532169 25.53668865 -18.59203195 27.07968054 -18.4375 28.625 C-18.35371094 29.44226563 -18.26992187 30.25953125 -18.18359375 31.1015625 C-18.12300781 31.72804687 -18.06242187 32.35453125 -18 33 C-16.02 32.34 -14.04 31.68 -12 31 C-12.42594588 32.44096586 -12.86626633 33.87768712 -13.3125 35.3125 C-13.55613281 36.11300781 -13.79976563 36.91351563 -14.05078125 37.73828125 C-15.4761263 41.13447377 -17.15780308 42.58969893 -20.4375 44.1875 C-23 45 -23 45 -27 45 C-27.20625 45.825 -27.4125 46.65 -27.625 47.5 C-31.50573916 57.37824514 -39.01312646 63.13701116 -48.40625 67.62890625 C-57.97205787 71.77755553 -57.97205787 71.77755553 -61.90625 72.62890625 C-64.98472952 73.36607228 -66.60192625 73.89233518 -69 76 C-71.63498761 81.11974042 -73.09174884 86.73722422 -74.49438477 92.29760742 C-75 94 -75 94 -76 95 C-77.66617115 95.04063832 -79.33388095 95.042721 -81 95 C-77.57445119 79.29260545 -71.69276799 66.96571656 -61 55 C-61.58265625 54.89042969 -62.1653125 54.78085938 -62.765625 54.66796875 C-69.57527865 53.35100743 -76.28451441 51.73079526 -83 50 C-82.01 48.35 -81.02 46.7 -80 45 C-77 46 -77 46 -75 49 C-72.3443272 49.58348752 -72.3443272 49.58348752 -69.375 49.6875 C-68.37210938 49.75324219 -67.36921875 49.81898438 -66.3359375 49.88671875 C-65.56507812 49.92410156 -64.79421875 49.96148437 -64 50 C-64.95198711 48.35048774 -65.91179145 46.70548492 -66.875 45.0625 C-67.40867187 44.14597656 -67.94234375 43.22945312 -68.4921875 42.28515625 C-69.79712563 39.89299704 -69.79712563 39.89299704 -72 39 C-72 37.35 -72 35.7 -72 34 C-67.54665023 37.9135498 -64.71058228 42.41917406 -61.6484375 47.4765625 C-60.23865121 49.63467138 -58.90185623 51.28256619 -57 53 C-56.46890625 52.4946875 -55.9378125 51.989375 -55.390625 51.46875 C-54.33101562 50.49421875 -54.33101562 50.49421875 -53.25 49.5 C-52.20585937 48.52546875 -52.20585937 48.52546875 -51.140625 47.53125 C-49 46 -49 46 -45 46 C-46.28998155 48.84194866 -47.63637587 50.87811943 -49.86328125 53.05859375 C-50.42080078 53.60966797 -50.97832031 54.16074219 -51.55273438 54.72851562 C-52.13345703 55.29248047 -52.71417969 55.85644531 -53.3125 56.4375 C-53.88162109 56.99759766 -54.45074219 57.55769531 -55.03710938 58.13476562 C-57.63622693 60.69210632 -60.24521753 63.23917934 -62.85546875 65.78515625 C-65.02944993 67.80816045 -65.02944993 67.80816045 -66 70 C-62.6801709 68.81120058 -59.37083713 67.59537922 -56.0625 66.375 C-55.13630859 66.04371094 -54.21011719 65.71242188 -53.25585938 65.37109375 C-46.10764963 62.71246135 -39.44902517 59.44902517 -34 54 C-33.97691403 51.77871445 -33.97691403 51.77871445 -34.375 49.375 C-34.48585937 48.55773437 -34.59671875 47.74046875 -34.7109375 46.8984375 C-34.80632812 46.27195313 -34.90171875 45.64546875 -35 45 C-34.01 45 -33.02 45 -32 45 C-31.67 44.01 -31.34 43.02 -31 42 C-29.35 42.33 -27.7 42.66 -26 43 C-24.67405641 37.03325384 -24.9115413 31.07416385 -25 25 C-25.99 25 -26.98 25 -28 25 C-28 24.01 -28 23.02 -28 22 C-27.236875 21.4225 -26.47375 20.845 -25.6875 20.25 C-22.27944062 17.39674098 -21.50812337 15.12749553 -20 11 C-19.01 11 -18.02 11 -17 11 C-15.31201173 9.56249809 -15.31201173 9.56249809 -14 8 C-14 8.66 -14 9.32 -14 10 C-12.03348679 9.48882684 -10.07676844 8.93986475 -8.125 8.375 C-6.48917969 7.92253906 -6.48917969 7.92253906 -4.8203125 7.4609375 C-1.70397936 6.22107355 -1.70397936 6.22107355 -0.6171875 2.8515625 C-0.41351563 1.91054687 -0.20984375 0.96953125 0 0 Z " fill="#F5EDDC" transform="translate(188,110)"/>
<path d="M0 0 C6.07295883 -0.16073424 11.70411464 0.44132662 17.6875 1.4375 C24.45339522 2.516734 31.12747374 3.37511417 37.98046875 3.69140625 C40.52164075 3.95111206 42.80036402 4.38250032 45.27734375 4.96484375 C49.95797968 6.05130649 54.59478345 6.57404011 59.375 7 C64.24062129 7.43790592 69.02296986 7.96866838 73.82080078 8.90429688 C80.38436158 10.11601855 86.98637533 10.97576595 93.60533142 11.8170929 C95.83592196 12.10070126 98.06601295 12.38799296 100.29602051 12.67614746 C105.03027671 13.28725921 109.76509057 13.89397301 114.5 14.5 C119.9950746 15.20332148 125.4898926 15.90853842 130.9841156 16.6184845 C133.16103599 16.89881787 135.33837042 17.17575112 137.51574707 17.45251465 C145.05571321 18.42048384 152.5393736 19.53365021 160 21 C160 21.33 160 21.66 160 22 C148.78557088 21.34914804 137.77132653 19.97865486 126.65429688 18.37304688 C125.36716797 18.19708984 124.08003906 18.02113281 122.75390625 17.83984375 C121.62283447 17.67863037 120.4917627 17.51741699 119.32641602 17.35131836 C107.5667805 16.15987422 95.70367581 17.17454818 83.96696281 18.1417408 C81.39797126 18.35315962 78.82845446 18.55671154 76.25868225 18.75840759 C69.89145546 19.25955377 63.52517279 19.77223598 57.15905762 20.28729248 C51.74239567 20.72537159 46.3253412 21.15770966 40.90756416 21.5817852 C38.38448531 21.78162051 35.86219859 21.9899391 33.33982849 22.19850159 C31.79161036 22.32036445 30.24335865 22.44180157 28.69506836 22.56274414 C28.00149734 22.62244385 27.30792633 22.68214355 26.59333801 22.74365234 C22.55472049 23.04818325 18.96323213 22.82964546 15 22 C13.46191783 15.64259371 12.55087284 9.51866188 12 3 C6.06 2.01 6.06 2.01 0 1 C0 0.67 0 0.34 0 0 Z " fill="#E5E4E2" transform="translate(48,242)"/>
<path d="M0 0 C0.33 0 0.66 0 1 0 C1.16242615 6.52798423 0.53761652 12.78160879 -0.3125 19.25 C-0.44712646 20.30268066 -0.58175293 21.35536133 -0.72045898 22.43994141 C-1.68932981 29.91054911 -2.78153293 37.35803118 -3.94018555 44.80126953 C-4.94151691 51.32949876 -5.70511222 57.87055536 -6.35375977 64.44287109 C-6.89882362 69.79764724 -6.89882362 69.79764724 -8 72 C-7.15219971 72.10022461 -6.30439941 72.20044922 -5.4309082 72.30371094 C-1.39109617 72.78297844 2.64831699 73.2654633 6.6875 73.75 C7.79238266 73.88239075 7.79238266 73.88239075 8.91958618 74.01745605 C20.9125691 75.45897427 32.87913955 77.0413898 44.83276367 78.78027344 C45.95400635 78.94043945 47.07524902 79.10060547 48.23046875 79.265625 C49.20395264 79.40774414 50.17743652 79.54986328 51.18041992 79.69628906 C54.14132414 80.01522272 57.02428595 80.05174676 60 80 C60 80.66 60 81.32 60 82 C60.87914063 82.02578125 61.75828125 82.0515625 62.6640625 82.078125 C77.56143649 82.72455937 92.24700503 84.91828905 107 87 C108.97783059 87.27498416 110.95569199 87.54974695 112.93359375 87.82421875 C119.67162095 88.7670283 126.40363914 89.73574451 133.12109375 90.81640625 C133.96196533 90.95167725 134.80283691 91.08694824 135.66918945 91.22631836 C137.22957836 91.4796353 138.78939129 91.73654653 140.34838867 91.99829102 C146.21009941 92.95723906 152.08123319 93.51838433 158 94 C158.11069824 93.04859131 158.22139648 92.09718262 158.33544922 91.11694336 C158.7554222 87.51035142 159.17704993 83.90395437 159.59912109 80.29760742 C159.77989522 78.7511088 159.9602492 77.20456099 160.14013672 75.65795898 C163.51974821 46.61029265 163.51974821 46.61029265 165.625 36.5625 C165.88539063 35.30566406 166.14578125 34.04882812 166.4140625 32.75390625 C166.70410156 31.39072266 166.70410156 31.39072266 167 30 C167.33 30 167.66 30 168 30 C168.25228548 37.28474314 167.27698769 44.26541485 166.25 51.46875 C166.07243164 52.74480103 165.89486328 54.02085205 165.71191406 55.33557129 C165.2432532 58.70303969 164.76809205 62.06955873 164.29150391 65.43591309 C163.80493813 68.88119818 163.32461866 72.32735348 162.84375 75.7734375 C161.90189465 82.51648251 160.95315923 89.2585438 160 96 C157.525 96.495 157.525 96.495 155 97 C155 97.66 155 98.32 155 99 C152.36 99 149.72 99 147 99 C146.67 98.01 146.34 97.02 146 96 C142.535 96.495 142.535 96.495 139 97 C139 96.34 139 95.68 139 95 C138.01 95.495 138.01 95.495 137 96 C133.65092596 95.73420047 130.33685268 95.38398765 127 95 C123.75071851 94.63904767 120.50044467 94.28779699 117.25 93.9375 C116.434104 93.84621826 115.61820801 93.75493652 114.77758789 93.66088867 C107.20717559 92.47089153 107.20717559 92.47089153 100 94 C99.34 93.01 98.68 92.02 98 91 C96.06372 90.43528603 96.06372 90.43528603 93.82421875 90.33984375 C92.99599609 90.26830078 92.16777344 90.19675781 91.31445312 90.12304688 C90.44755859 90.06181641 89.58066406 90.00058594 88.6875 89.9375 C75.96951468 88.96951468 75.96951468 88.96951468 72 85 C69.50347543 84.50847676 67.07470101 84.12851359 64.5546875 83.81640625 C63.80111465 83.71636795 63.04754181 83.61632965 62.27113342 83.51325989 C59.8067423 83.18821401 57.34097311 82.87529699 54.875 82.5625 C53.17642103 82.34071486 51.4779348 82.11821832 49.77954102 81.89501953 C39.56471841 80.55877128 29.34245568 79.27995044 19.11669922 78.03027344 C9.7167253 76.87011304 0.35756336 75.45953145 -9 74 C-9.26475384 65.56962393 -8.45892612 57.50125131 -7.28515625 49.16015625 C-7.10995956 47.87564072 -6.93476288 46.59112518 -6.7542572 45.26768494 C-6.38628757 42.57194384 -6.01360344 39.87691614 -5.63696289 37.18237305 C-5.15509704 33.73465102 -4.68169776 30.28583527 -4.21134281 26.83652592 C-3.75970738 23.52733072 -3.30376024 20.21873873 -2.84765625 16.91015625 C-2.6778273 15.67475601 -2.50799835 14.43935577 -2.33302307 13.16651917 C-2.17293259 12.02110153 -2.0128421 10.8756839 -1.84790039 9.69555664 C-1.70800186 8.68948868 -1.56810333 7.68342072 -1.42396545 6.64686584 C-1.06125554 4.38242549 -0.60119239 2.21110332 0 0 Z " fill="#E1E0DF" transform="translate(53,124)"/>
<path d="M0 0 C3.72433382 1.2125738 7.37802806 2.50859979 11 4 C11.66 3.01 12.32 2.02 13 1 C13.66 1 14.32 1 15 1 C15 1.66 15 2.32 15 3 C15.99 3.33 16.98 3.66 18 4 C20.1222401 7.25915444 21.04741792 9.20970132 20.8125 13.125 C20.10035085 15.64491239 19.3044606 17.73893497 18 20 C17.34 20 16.68 20 16 20 C16 20.66 16 21.32 16 22 C15.01 22 14.02 22 13 22 C12.67 22.66 12.34 23.32 12 24 C11.34 23.67 10.68 23.34 10 23 C10 23.99 10 24.98 10 26 C9.01 26 8.02 26 7 26 C7.33 26.99 7.66 27.98 8 29 C7.071875 29.103125 6.14375 29.20625 5.1875 29.3125 C2.00832854 29.67836937 2.00832854 29.67836937 0.5 31.625 C0.005 32.07875 -0.49 32.5325 -1 33 C-4.1875 32.6875 -4.1875 32.6875 -7 32 C-7.33 31.01 -7.66 30.02 -8 29 C-6.68 28.67 -5.36 28.34 -4 28 C-6.31 27.67 -8.62 27.34 -11 27 C-11 26.67 -11 26.34 -11 26 C-9.35 25.67 -7.7 25.34 -6 25 C-6.78375 24.38125 -7.5675 23.7625 -8.375 23.125 C-12.05337326 19.52998931 -12.36130206 14.90939462 -13 10 C-9.66177043 10.61449997 -6.97790508 11.34560829 -4 13 C-4.33 10.36 -4.66 7.72 -5 5 C-3.68 5.33 -2.36 5.66 -1 6 C-0.67 4.02 -0.34 2.04 0 0 Z " fill="#F8F1E1" transform="translate(99,71)"/>
<path d="M0 0 C4.45334977 3.9135498 7.28941772 8.41917406 10.3515625 13.4765625 C11.76134879 15.63467138 13.09814377 17.28256619 15 19 C15.53109375 18.4946875 16.0621875 17.989375 16.609375 17.46875 C17.31578125 16.8190625 18.0221875 16.169375 18.75 15.5 C19.44609375 14.8503125 20.1421875 14.200625 20.859375 13.53125 C23 12 23 12 27 12 C25.71001845 14.84194866 24.36362413 16.87811943 22.13671875 19.05859375 C21.30043945 19.88520508 21.30043945 19.88520508 20.44726562 20.72851562 C19.86654297 21.29248047 19.28582031 21.85644531 18.6875 22.4375 C18.11837891 22.99759766 17.54925781 23.55769531 16.96289062 24.13476562 C14.36377307 26.69210632 11.75478247 29.23917934 9.14453125 31.78515625 C6.97055007 33.80816045 6.97055007 33.80816045 6 36 C9.3198291 34.81120058 12.62916287 33.59537922 15.9375 32.375 C16.86369141 32.04371094 17.78988281 31.71242187 18.74414062 31.37109375 C25.89235037 28.71246135 32.55097483 25.44902517 38 20 C38.02308597 17.77871445 38.02308597 17.77871445 37.625 15.375 C37.51414063 14.55773437 37.40328125 13.74046875 37.2890625 12.8984375 C37.19367188 12.27195313 37.09828125 11.64546875 37 11 C38.32 11.66 39.64 12.32 41 13 C41.99 12.34 42.98 11.68 44 11 C44.43601172 16.40275389 42.5191585 18.69700085 39.16796875 22.73046875 C31.61971314 30.63233634 20.75471979 36.32189531 10.09375 38.62890625 C7.01527048 39.36607228 5.39807375 39.89233518 3 42 C0.36501239 47.11974042 -1.09174884 52.73722422 -2.49438477 58.29760742 C-3 60 -3 60 -4 61 C-5.66617115 61.04063832 -7.33388095 61.042721 -9 61 C-5.57445119 45.29260545 0.30723201 32.96571656 11 21 C10.12601563 20.83564453 10.12601563 20.83564453 9.234375 20.66796875 C2.42472135 19.35100743 -4.28451441 17.73079526 -11 16 C-10.01 14.35 -9.02 12.7 -8 11 C-5 12 -5 12 -3 15 C-0.3443272 15.58348752 -0.3443272 15.58348752 2.625 15.6875 C3.62789062 15.75324219 4.63078125 15.81898438 5.6640625 15.88671875 C6.43492188 15.92410156 7.20578125 15.96148437 8 16 C7.04801289 14.35048774 6.08820855 12.70548492 5.125 11.0625 C4.59132813 10.14597656 4.05765625 9.22945312 3.5078125 8.28515625 C2.20287437 5.89299704 2.20287437 5.89299704 0 5 C0 3.35 0 1.7 0 0 Z " fill="#68423B" transform="translate(116,144)"/>
<path d="M0 0 C0 0.66 0 1.32 0 2 C-0.78375 2.103125 -1.5675 2.20625 -2.375 2.3125 C-5.33045181 2.77595022 -5.33045181 2.77595022 -7 6 C-7.45276748 8.02249579 -7.45276748 8.02249579 -7.6328125 10.23046875 C-7.71660156 11.03291016 -7.80039063 11.83535156 -7.88671875 12.66210938 C-8.00466797 13.91217773 -8.00466797 13.91217773 -8.125 15.1875 C-8.21136719 16.03248047 -8.29773438 16.87746094 -8.38671875 17.74804688 C-8.5985739 19.83128923 -8.80026777 21.91556042 -9 24 C-5.7 24.66 -2.4 25.32 1 26 C1 23.69 1 21.38 1 19 C2.75867455 22.00843796 3.21031022 23.88191972 2.828125 27.3359375 C2.74046875 28.15320313 2.6528125 28.97046875 2.5625 29.8125 C2.459375 30.658125 2.35625 31.50375 2.25 32.375 C2.16234375 33.21289062 2.0746875 34.05078125 1.984375 34.9140625 C1.46796672 39.47566898 0.86373651 43.76065569 -1 48 C-4.34595599 50.23063732 -5.15342897 50.22989197 -9 49.875 C-9.86625 49.81054688 -10.7325 49.74609375 -11.625 49.6796875 C-14 49 -14 49 -15.82421875 47.45703125 C-17.52740732 43.8978764 -17.14133935 40.63703577 -16.8125 36.8125 C-16.72730103 35.63385376 -16.72730103 35.63385376 -16.64038086 34.43139648 C-16.45061666 31.95159654 -16.23075973 29.47630398 -16 27 C-15.88881836 25.78473633 -15.88881836 25.78473633 -15.77539062 24.54492188 C-15.55398311 22.21541206 -15.31402726 19.88893754 -15.0625 17.5625 C-14.95095581 16.48995972 -14.95095581 16.48995972 -14.8371582 15.39575195 C-14.42062576 11.88813267 -13.99819283 9.99728924 -12 7 C-11.71125 6.175 -11.4225 5.35 -11.125 4.5 C-8.61482226 -1.07817276 -5.65394423 -1.41348606 0 0 Z " fill="#EAE9E9" transform="translate(154,16)"/>
<path d="M0 0 C2.5 0.3125 2.5 0.3125 5 1 C8.24017632 7.48035265 5.45074627 18.07643516 4.625 25 C4.43550781 26.68609375 4.43550781 26.68609375 4.2421875 28.40625 C2.30313 45.00458218 2.30313 45.00458218 -1 50.0625 C-5.32846582 52.85796751 -8.98568152 52.73810768 -14 52 C-19.30485113 50.10541031 -19.30485113 50.10541031 -21.15332031 47.16601562 C-22.09528337 44.75624162 -22.18290178 43.16609386 -22.046875 40.59375 C-22.00433594 39.76746094 -21.96179688 38.94117188 -21.91796875 38.08984375 C-21.86253906 37.23519531 -21.80710938 36.38054688 -21.75 35.5 C-21.71003906 34.64535156 -21.67007813 33.79070313 -21.62890625 32.91015625 C-21.38354873 28.65950295 -20.95322263 25.80543325 -19 22 C-18.75889241 18.94985072 -18.75889241 18.94985072 -18.875 15.75 C-18.89304688 14.67234375 -18.91109375 13.5946875 -18.9296875 12.484375 C-18.95289063 11.66453125 -18.97609375 10.8446875 -19 10 C-18.01 9.67 -17.02 9.34 -16 9 C-15.68320071 16.83198245 -16.37637379 24.42905391 -17.37646484 32.18481445 C-17.96128727 37.05414058 -17.92211835 41.17661172 -17 46 C-12.23947038 47.97387813 -9.03511899 48.0070238 -4 47 C-0.64412003 37.83478159 0.39717675 27.73083041 0 18 C-0.33 20.31 -0.66 22.62 -1 25 C-1.99 25 -2.98 25 -4 25 C-4.1799928 19.78020872 -3.97094808 15.92737019 -2 11 C-1.01 11.33 -0.02 11.66 1 12 C1.05399736 10.54207116 1.09279177 9.08357288 1.125 7.625 C1.14820313 6.81289063 1.17140625 6.00078125 1.1953125 5.1640625 C1.21370051 2.78657757 1.21370051 2.78657757 -1 1 C-0.67 0.67 -0.34 0.34 0 0 Z " fill="#8D92A4" transform="translate(156,17)"/>
<path d="M0 0 C2.08132261 4.4075067 2.08132261 4.4075067 1.7265625 6.9921875 C-0.0367685 11.86504844 -4.80364647 14.39523377 -9.19140625 16.61328125 C-16.30391549 19.75964922 -23.42594874 22.23787379 -31 24 C-29.42883077 20.14349371 -26.97322351 17.86955463 -24 15 C-22.90515628 13.83279495 -21.81561224 12.66060373 -20.73046875 11.484375 C-19.54976262 10.23931447 -18.36876815 8.99452732 -17.1875 7.75 C-16.60935547 7.11320313 -16.03121094 6.47640625 -15.43554688 5.8203125 C-10.4774762 0.67049323 -7.11163722 0 0 0 Z " fill="#FBF8F5" transform="translate(153,156)"/>
<path d="M0 0 C0.66 0 1.32 0 2 0 C2 0.99 2 1.98 2 3 C3.65 2.34 5.3 1.68 7 1 C6.64499287 4.19506418 6.01905422 4.98380392 3.5 7.125 C0.00221282 11.14745526 0.11068308 14.81801943 0 20 C0.66 19.67 1.32 19.34 2 19 C2.40729228 16.67843403 2.74438677 14.3431213 3 12 C5.475 12.495 5.475 12.495 8 13 C6.32598022 16.95677402 3.86850715 19.84464213 1 23 C0.34 23 -0.32 23 -1 23 C-1.08803772 26.49983803 -1.14073608 29.99938638 -1.1875 33.5 C-1.21263672 34.48226562 -1.23777344 35.46453125 -1.26367188 36.4765625 C-1.32689235 42.79860963 -0.41898299 47.18414728 2 53 C1.97363913 55.49469703 1.56143315 57.5501099 1 60 C-0.75692466 56.81319726 -1.63061165 53.69446147 -2.5625 50.1875 C-4.73297439 43.57118401 -7.97253202 40.34529421 -14 37 C-15.42049874 36.39585115 -16.85787274 35.8290966 -18.3125 35.3125 C-22.07147125 33.97456108 -23.42996458 32.92452307 -26 30 C-28.55805279 27.7699027 -30.57606491 26.1637931 -33.75 24.9375 C-34.4925 24.628125 -35.235 24.31875 -36 24 C-36.33 23.01 -36.66 22.02 -37 21 C-36.01 21 -35.02 21 -34 21 C-34 20.01 -34 19.02 -34 18 C-32.125 18.6875 -32.125 18.6875 -30 20 C-29.690625 20.78375 -29.38125 21.5675 -29.0625 22.375 C-26.83756685 27.87189366 -20.968254 30.27233114 -16 33 C-16.2165625 32.45730469 -16.433125 31.91460937 -16.65625 31.35546875 C-17.07390625 30.28232422 -17.07390625 30.28232422 -17.5 29.1875 C-17.7784375 28.47980469 -18.056875 27.77210937 -18.34375 27.04296875 C-19 25 -19 25 -19 22 C-18.34 22.33 -17.68 22.66 -17 23 C-17 22.01 -17 21.02 -17 20 C-16.34 20 -15.68 20 -15 20 C-14.95101562 20.74765625 -14.90203125 21.4953125 -14.8515625 22.265625 C-14.77679688 23.25046875 -14.70203125 24.2353125 -14.625 25.25 C-14.55539063 26.22453125 -14.48578125 27.1990625 -14.4140625 28.203125 C-13.85159096 32.00246105 -13.14625626 34.12534663 -10.0546875 36.484375 C-9.33539063 36.90203125 -8.61609375 37.3196875 -7.875 37.75 C-7.15054688 38.17796875 -6.42609375 38.6059375 -5.6796875 39.046875 C-4.84824219 39.51867187 -4.84824219 39.51867187 -4 40 C-2.97113411 32.77242969 -2.68975676 25.60071345 -2.48242188 18.30859375 C-2.2503353 12.02911931 -1.42326045 6.12060223 0 0 Z " fill="#6C4F47" transform="translate(143,76)"/>
<path d="M0 0 C1.77155654 0.11429397 3.54226229 0.24183037 5.3125 0.375 C6.79169922 0.47941406 6.79169922 0.47941406 8.30078125 0.5859375 C11 1 11 1 14 3 C9.71 3 5.42 3 1 3 C-1.99493842 22.18522315 -4.50191818 41.41720146 -6.89306641 60.68579102 C-7.01750122 61.67946182 -7.14193604 62.67313263 -7.2701416 63.69691467 C-7.5030019 65.55688729 -7.733437 67.41716605 -7.96081543 69.27781677 C-8.75002634 75.56425537 -9.81226638 81.77698692 -11 88 C-11.33 88 -11.66 88 -12 88 C-12.22766957 81.91616316 -11.93266694 76.19857546 -10.9375 70.1875 C-9.58330131 60.91644746 -10.30875914 51.85071528 -10.86962891 42.53320312 C-11.13603883 37.35666871 -11.08799002 32.1816345 -11 27 C-9.02 26.34 -7.04 25.68 -5 25 C-4.91959473 24.38479492 -4.83918945 23.76958984 -4.75634766 23.13574219 C-4.38663896 20.33945757 -4.0059393 17.54477586 -3.625 14.75 C-3.43550781 13.29787109 -3.43550781 13.29787109 -3.2421875 11.81640625 C-3.11328125 10.88183594 -2.984375 9.94726562 -2.8515625 8.984375 C-2.67874756 7.69611816 -2.67874756 7.69611816 -2.50244141 6.38183594 C-1.99439309 3.9734203 -1.19919501 2.1386366 0 0 Z " fill="#DBDBDA" transform="translate(58,29)"/>
<path d="M0 0 C0.66 0.33 1.32 0.66 2 1 C2 1.66 2 2.32 2 3 C2.99 2.67 3.98 2.34 5 2 C5.66 3.65 6.32 5.3 7 7 C4.36 8.65 1.72 10.3 -1 12 C-0.67 12.66 -0.34 13.32 0 14 C0.22467831 15.53668865 0.40796805 17.07968054 0.5625 18.625 C0.64628906 19.44226563 0.73007813 20.25953125 0.81640625 21.1015625 C0.87699219 21.72804687 0.93757812 22.35453125 1 23 C2.98 22.34 4.96 21.68 7 21 C6.57405412 22.44096586 6.13373367 23.87768712 5.6875 25.3125 C5.44386719 26.11300781 5.20023438 26.91351563 4.94921875 27.73828125 C3.5238737 31.13447377 1.84219692 32.58969893 -1.4375 34.1875 C-4 35 -4 35 -8 35 C-8.33 35.66 -8.66 36.32 -9 37 C-9.66 37 -10.32 37 -11 37 C-11.99 37.495 -11.99 37.495 -13 38 C-13.495 36.515 -13.495 36.515 -14 35 C-12.75 33.4375 -12.75 33.4375 -11 32 C-8.8125 32.3125 -8.8125 32.3125 -7 33 C-5.67405641 27.03325384 -5.9115413 21.07416385 -6 15 C-6.99 15 -7.98 15 -9 15 C-9 14.01 -9 13.02 -9 12 C-8.236875 11.4225 -7.47375 10.845 -6.6875 10.25 C-3.27237762 7.39082778 -2.55585422 5.12301367 -1 1 C-0.67 0.67 -0.34 0.34 0 0 Z " fill="#F6EFDD" transform="translate(169,120)"/>
<path d="M0 0 C4 1 4 1 5.484375 3.28515625 C6.65625 5.85677083 7.828125 8.42838542 9 11 C9.33 7.37 9.66 3.74 10 0 C12.29576678 2.29576678 13.0638375 3.90346249 14 7 C13.68564441 10.37932259 13.42520546 11.57479454 11 14 C10.35232207 16.57061311 10.35232207 16.57061311 10 19 C9.01 18.67 8.02 18.34 7 18 C7 18.99 7 19.98 7 21 C6.01 21 5.02 21 4 21 C4.33 21.99 4.66 22.98 5 24 C4.071875 24.103125 3.14375 24.20625 2.1875 24.3125 C-0.99167146 24.67836937 -0.99167146 24.67836937 -2.5 26.625 C-2.995 27.07875 -3.49 27.5325 -4 28 C-7.1875 27.6875 -7.1875 27.6875 -10 27 C-10.33 26.01 -10.66 25.02 -11 24 C-9.68 23.67 -8.36 23.34 -7 23 C-9.31 22.67 -11.62 22.34 -14 22 C-14 21.67 -14 21.34 -14 21 C-10.04 20.67 -6.08 20.34 -2 20 C-2.886875 19.443125 -3.77375 18.88625 -4.6875 18.3125 C-7.84318957 16.20620839 -10.46249292 13.83603733 -13 11 C-13 10.34 -13 9.68 -13 9 C-9.23162425 10.69411629 -6.71928439 13.00423992 -3.78125 15.85546875 C-2.05657161 17.23210931 -2.05657161 17.23210931 0.078125 16.7421875 C2.12960326 15.94994996 4.06189847 15.03826868 6 14 C6 12.68 6 11.36 6 10 C5.34 10 4.68 10 4 10 C2.68 6.7 1.36 3.4 0 0 Z " fill="#EADFCD" transform="translate(102,76)"/>
<path d="M0 0 C1.66342837 1.66342837 1.36048097 3.7825709 1.5625 6.0625 C1.64628906 6.98160156 1.73007813 7.90070312 1.81640625 8.84765625 C1.87699219 9.55792969 1.93757813 10.26820312 2 11 C4.31 11.33 6.62 11.66 9 12 C10.03038433 15.9414002 9.87693282 18.83615152 9.0625 22.8125 C8.86785156 23.78832031 8.67320312 24.76414062 8.47265625 25.76953125 C8.23869141 26.87361328 8.23869141 26.87361328 8 28 C7.67 28 7.34 28 7 28 C6.91632532 23.14686868 7.1279449 18.79286977 8 14 C7.36312256 13.92483154 6.72624512 13.84966309 6.07006836 13.7722168 C-0.44467987 13.00149231 -6.95793616 12.21905456 -13.47021484 11.42773438 C-15.77755965 11.14813359 -18.08516814 10.87069805 -20.39306641 10.59570312 C-23.55474324 10.21759987 -26.71494762 9.82891875 -29.875 9.4375 C-30.84832275 9.32301514 -31.82164551 9.20853027 -32.82446289 9.09057617 C-33.72543701 8.97689697 -34.62641113 8.86321777 -35.5546875 8.74609375 C-36.73780518 8.60192017 -36.73780518 8.60192017 -37.94482422 8.45483398 C-40 8 -40 8 -43 6 C-33.76985111 5.63299607 -24.95110647 7.04649628 -15.875 8.5 C-14.33083758 8.74157938 -12.78656727 8.98247023 -11.2421875 9.22265625 C-7.49350116 9.80717663 -3.74639625 10.40098444 0 11 C-0.495 6.545 -0.495 6.545 -1 2 C-2.43988281 2.144375 -3.87976563 2.28875 -5.36328125 2.4375 C-17.95647911 3.64649872 -30.35175467 4.26565743 -43 4 C-43 3.67 -43 3.34 -43 3 C-8.07425947 -0.5865915 -8.07425947 -0.5865915 0 0 Z " fill="#D9D9D8" transform="translate(235,42)"/>
<path d="M0 0 C5.61 0.66 11.22 1.32 17 2 C16.50889407 10.47157726 16.50889407 10.47157726 14.26953125 12.796875 C11.52310515 14.25281173 10.00865286 14.26638666 6.9375 13.9375 C6.08027344 13.86402344 5.22304687 13.79054688 4.33984375 13.71484375 C2 13 2 13 0.171875 11.23828125 C-1.84285961 7.39013814 -0.6784583 4.19410587 0 0 Z " fill="#FBFBFB" transform="translate(138,52)"/>
<path d="M0 0 C2.5 0.3125 2.5 0.3125 5 1 C8.32238764 7.64477529 5.36873342 18.49132301 4.5 25.5625 C4.28537109 27.36170898 4.28537109 27.36170898 4.06640625 29.19726562 C3.71562826 32.13210815 3.36005141 35.06628323 3 38 C2.34 37.01 1.68 36.02 1 35 C1.061875 35.9075 1.12375 36.815 1.1875 37.75 C0.97898296 41.36429542 0.23586253 42.30053343 -2 45 C-1.85820962 42.77057252 -1.71140302 40.54146372 -1.5625 38.3125 C-1.48128906 37.07113281 -1.40007812 35.82976563 -1.31640625 34.55078125 C-1.05449535 31.61155892 -0.58431013 28.88259663 0 26 C0.06266512 24.56371543 0.08686347 23.1249445 0.0625 21.6875 C0.041875 20.470625 0.02125 19.25375 0 18 C-0.33 20.31 -0.66 22.62 -1 25 C-1.99 25 -2.98 25 -4 25 C-4.1799928 19.78020872 -3.97094808 15.92737019 -2 11 C-1.01 11.33 -0.02 11.66 1 12 C1.05399736 10.54207116 1.09279177 9.08357288 1.125 7.625 C1.15980469 6.40683594 1.15980469 6.40683594 1.1953125 5.1640625 C1.21370051 2.78657757 1.21370051 2.78657757 -1 1 C-0.67 0.67 -0.34 0.34 0 0 Z " fill="#939AAB" transform="translate(156,17)"/>
<path d="M0 0 C4.45334977 3.9135498 7.28941772 8.41917406 10.3515625 13.4765625 C11.76134879 15.63467138 13.09814377 17.28256619 15 19 C15.53109375 18.4946875 16.0621875 17.989375 16.609375 17.46875 C17.31578125 16.8190625 18.0221875 16.169375 18.75 15.5 C19.44609375 14.8503125 20.1421875 14.200625 20.859375 13.53125 C23 12 23 12 27 12 C25.46751951 15.58402695 23.3325399 18.02850134 20.625 20.8125 C19.85414063 21.62332031 19.08328125 22.43414062 18.2890625 23.26953125 C16 25 16 25 13.7109375 24.76171875 C13.14632812 24.51035156 12.58171875 24.25898438 12 24 C12 22.68 12 21.36 12 20 C11.01902344 20.04125 10.03804687 20.0825 9.02734375 20.125 C4.67204175 20.125 0.74509035 19.13270516 -3.4375 18 C-4.53481445 17.71382812 -4.53481445 17.71382812 -5.65429688 17.421875 C-7.43819666 16.95549597 -9.21939845 16.47881722 -11 16 C-10.01 14.35 -9.02 12.7 -8 11 C-5 12 -5 12 -3 15 C-0.3443272 15.58348752 -0.3443272 15.58348752 2.625 15.6875 C3.62789062 15.75324219 4.63078125 15.81898438 5.6640625 15.88671875 C6.43492188 15.92410156 7.20578125 15.96148437 8 16 C7.04801289 14.35048774 6.08820855 12.70548492 5.125 11.0625 C4.59132813 10.14597656 4.05765625 9.22945312 3.5078125 8.28515625 C2.20287437 5.89299704 2.20287437 5.89299704 0 5 C0 3.35 0 1.7 0 0 Z " fill="#6B4741" transform="translate(116,144)"/>
<path d="M0 0 C1.910403 3.1806662 2.16388313 5.06464842 1.609375 8.7109375 C1.41178589 10.07412109 1.41178589 10.07412109 1.21020508 11.46484375 C1.0583374 12.42519531 0.90646973 13.38554687 0.75 14.375 C0.60522217 15.35855469 0.46044434 16.34210938 0.3112793 17.35546875 C-0.1145614 20.23880941 -0.55561328 23.11946777 -1 26 C-1.40207818 28.66581792 -1.79623664 31.33255487 -2.1875 34 C-2.34605469 35.03125 -2.50460938 36.0625 -2.66796875 37.125 C-3.01250089 40.10824303 -3.0212477 42.99982489 -3 46 C-3.31478446 47.33783393 -3.64587656 48.67203709 -4 50 C-4 51.32 -4 52.64 -4 54 C-1.36 54 1.28 54 4 54 C4 54.33 4 54.66 4 55 C-0.455 55.495 -0.455 55.495 -5 56 C-5.13277344 56.71027344 -5.26554688 57.42054688 -5.40234375 58.15234375 C-5.57894531 59.07144531 -5.75554687 59.99054688 -5.9375 60.9375 C-6.11152344 61.85402344 -6.28554687 62.77054687 -6.46484375 63.71484375 C-7 66 -7 66 -8 67 C-10.33297433 67.04092937 -12.66705225 67.04241723 -15 67 C-15 66.67 -15 66.34 -15 66 C-13.02 66 -11.04 66 -9 66 C-8.94448975 65.34515625 -8.88897949 64.6903125 -8.83178711 64.015625 C-8.21719898 56.99034318 -7.43937868 49.99704222 -6.5625 43 C-6.44068359 41.99710938 -6.31886719 40.99421875 -6.19335938 39.9609375 C-5.58217963 35.05883258 -4.88286715 30.20297397 -3.96875 25.34765625 C-3.03640395 20.39264864 -2.42840072 15.45322474 -1.9375 10.4375 C-1.13297872 2.26595745 -1.13297872 2.26595745 0 0 Z " fill="#D5D4D2" transform="translate(224,198)"/>
<path d="M0 0 C0.33 0 0.66 0 1 0 C1 10.56 1 21.12 1 32 C-0.485 32.495 -0.485 32.495 -2 33 C-1.979375 34.299375 -1.95875 35.59875 -1.9375 36.9375 C-1.91600546 38.29165633 -1.92851801 39.64756083 -2 41 C-2.495 41.495 -2.495 41.495 -3 42 C-3.5010227 45.52082315 -3.90192452 49.04870145 -4.3046875 52.58203125 C-5.00601954 56.02959046 -5.83890657 57.34952721 -8 60 C-7.54826591 55.7284423 -7.08738763 51.45791655 -6.625 47.1875 C-6.49867188 45.99189453 -6.37234375 44.79628906 -6.2421875 43.56445312 C-5.54565782 37.17379332 -4.66530634 30.89189145 -3.45507812 24.5793457 C-2.71931045 20.40907454 -2.32772011 16.21437714 -1.9375 12 C-1.78309541 10.3538684 -1.62567369 8.70801626 -1.46484375 7.0625 C-1.399021 6.35222656 -1.33319824 5.64195313 -1.26538086 4.91015625 C-1 3 -1 3 0 0 Z " fill="#D6D5D4" transform="translate(240,79)"/>
<path d="M0 0 C19.14162165 2.13472485 38.23786178 4.51701428 57.3125 7.1875 C58.73280014 7.38572357 58.73280014 7.38572357 60.18179321 7.58795166 C62.88844424 7.96654825 65.59470344 8.34779831 68.30078125 8.73046875 C69.51121094 8.90057213 69.51121094 8.90057213 70.74609375 9.07411194 C74.52397873 9.61306166 78.26681471 10.19726966 82 11 C82 11.33 82 11.66 82 12 C72.23669334 11.43680463 62.68011755 10.32133615 53 8.9375 C40.28601172 7.17075173 27.83975036 6.5149727 15 7 C15.33 6.34 15.66 5.68 16 5 C14.92878906 4.80664062 13.85757813 4.61328125 12.75390625 4.4140625 C11.35668511 4.15149745 9.95955422 3.88845175 8.5625 3.625 C7.85544922 3.49867188 7.14839844 3.37234375 6.41992188 3.2421875 C4.59948 2.89377757 2.79728352 2.452957 1 2 C0.67 1.34 0.34 0.68 0 0 Z " fill="#D6D5D4" transform="translate(126,252)"/>
<path d="M0 0 C0.33 0 0.66 0 1 0 C0.46798573 11.59413935 -0.81889812 22.95794158 -2.5 34.4375 C-2.9501759 37.56087549 -3.39706989 40.68471667 -3.84375 43.80859375 C-3.94880859 44.53887787 -4.05386719 45.26916199 -4.16210938 46.02157593 C-4.8745014 51.00695568 -5.49380307 55.98980082 -6 61 C-5.08476562 61.04898438 -4.16953125 61.09796875 -3.2265625 61.1484375 C-2.03804687 61.22320312 -0.84953125 61.29796875 0.375 61.375 C2.15003906 61.47941406 2.15003906 61.47941406 3.9609375 61.5859375 C7 62 7 62 9 64 C6.35375716 63.85978195 3.70815422 63.71310224 1.0625 63.5625 C-0.06961914 63.50352539 -0.06961914 63.50352539 -1.22460938 63.44335938 C-6.88671875 63.11328125 -6.88671875 63.11328125 -8 62 C-8.2956546 54.80064863 -7.48606219 47.9051368 -6.50390625 40.78125 C-6.35090561 39.64216187 -6.19790497 38.50307373 -6.04026794 37.32946777 C-5.7177831 34.93898307 -5.39238253 32.54889007 -5.06420898 30.15917969 C-4.56040692 26.48473426 -4.06764261 22.80892546 -3.57617188 19.1328125 C-3.26106646 16.80720353 -2.9453338 14.48167944 -2.62890625 12.15625 C-2.4069735 10.50018738 -2.4069735 10.50018738 -2.18055725 8.81066895 C-2.04048752 7.7987146 -1.90041779 6.78676025 -1.75610352 5.74414062 C-1.63396988 4.84973267 -1.51183624 3.95532471 -1.38600159 3.03381348 C-1 1 -1 1 0 0 Z " fill="#DDDDDC" transform="translate(37,178)"/>
<path d="M0 0 C16.68285908 0.52544438 33.66596013 2.57997173 50 6 C50 6.33 50 6.66 50 7 C39.98902755 7.41453302 30.26452078 5.865146 20.375 4.5 C18.58992532 4.25851087 16.80476956 4.01762028 15.01953125 3.77734375 C10.67872123 3.19179774 6.33909122 2.59814427 2 2 C1.91959473 2.80743652 1.83918945 3.61487305 1.75634766 4.44677734 C1.38835248 8.09050708 1.00685427 11.73269774 0.625 15.375 C0.49867187 16.64601563 0.37234375 17.91703125 0.2421875 19.2265625 C0.11328125 20.43828125 -0.015625 21.65 -0.1484375 22.8984375 C-0.26364746 24.01911621 -0.37885742 25.13979492 -0.49755859 26.29443359 C-1 29 -1 29 -3 31 C-3.21120322 23.80540143 -2.60752499 16.97912425 -1.5 9.875 C-1.35691406 8.91851562 -1.21382812 7.96203125 -1.06640625 6.9765625 C-0.71741855 4.64997784 -0.36187667 2.32460844 0 0 Z " fill="#D9D9D9" transform="translate(64,41)"/>
<path d="M0 0 C0.33 0 0.66 0 1 0 C1.25228548 7.28474314 0.27698769 14.26541485 -0.75 21.46875 C-0.92756836 22.74480103 -1.10513672 24.02085205 -1.28808594 25.33557129 C-1.7567468 28.70303969 -2.23190795 32.06955873 -2.70849609 35.43591309 C-3.19506187 38.88119818 -3.67538134 42.32735348 -4.15625 45.7734375 C-5.09810566 52.51648467 -6.04741859 59.25845977 -7 66 C-11.29 65.67 -15.58 65.34 -20 65 C-20 64.67 -20 64.34 -20 64 C-16.37 64 -12.74 64 -9 64 C-8.88930176 63.04859131 -8.77860352 62.09718262 -8.66455078 61.11694336 C-8.2445778 57.51035142 -7.82295007 53.90395437 -7.40087891 50.29760742 C-7.22010478 48.7511088 -7.0397508 47.20456099 -6.85986328 45.65795898 C-3.48025179 16.61029265 -3.48025179 16.61029265 -1.375 6.5625 C-1.11460937 5.30566406 -0.85421875 4.04882812 -0.5859375 2.75390625 C-0.39257812 1.84511719 -0.19921875 0.93632812 0 0 Z " fill="#DBDAD9" transform="translate(220,154)"/>
<path d="M0 0 C0.94341323 3.07597817 1.00681926 5.41297432 0.59448242 8.59399414 C0.48073776 9.49916275 0.3669931 10.40433136 0.24980164 11.33692932 C0.11967178 12.30984421 -0.01045807 13.28275909 -0.14453125 14.28515625 C-0.33930305 15.80235512 -0.33930305 15.80235512 -0.53800964 17.35020447 C-0.8145753 19.49328152 -1.09472357 21.63589883 -1.37817383 23.77807617 C-1.8075288 27.02490722 -2.22605322 30.27298515 -2.64257812 33.52148438 C-2.91341983 35.60945847 -3.18488491 37.69735181 -3.45703125 39.78515625 C-3.64311699 41.22327415 -3.64311699 41.22327415 -3.83296204 42.69044495 C-4.69350796 49.16706684 -5.77747102 55.58207572 -7 62 C-7.33 62 -7.66 62 -8 62 C-8.28247377 54.45167325 -7.59178196 47.28492845 -6.51171875 39.81640625 C-5.76235669 34.22765254 -5.3604816 28.62541022 -5 23 C-4.67 23 -4.34 23 -4 23 C-3.91435791 22.3387915 -3.82871582 21.67758301 -3.74047852 20.99633789 C-3.35220172 18.01780129 -2.9574395 15.04016015 -2.5625 12.0625 C-2.42779297 11.02158203 -2.29308594 9.98066406 -2.15429688 8.90820312 C-2.02216797 7.91884766 -1.89003906 6.92949219 -1.75390625 5.91015625 C-1.63345947 4.99371338 -1.5130127 4.07727051 -1.38891602 3.13305664 C-1 1 -1 1 0 0 Z " fill="#D8D7D7" transform="translate(54,55)"/>
<path d="M0 0 C0.91007812 0.10183594 1.82015625 0.20367187 2.7578125 0.30859375 C3.45648438 0.39238281 4.15515625 0.47617188 4.875 0.5625 C4.545 1.2225 4.215 1.8825 3.875 2.5625 C2.555 2.5625 1.235 2.5625 -0.125 2.5625 C1.0395201 4.22871425 1.0395201 4.22871425 2.875 5.5625 C6.84868795 5.35335853 9.59575836 3.71743022 12.875 1.5625 C12.875 2.8825 12.875 4.2025 12.875 5.5625 C9.47556416 8.93067666 6.04619037 9.46042717 1.42578125 9.84375 C-2.90962547 9.36572659 -5.34443641 6.73897166 -8.125 3.5625 C-7.795 2.5725 -7.465 1.5825 -7.125 0.5625 C-4.50184968 -0.74907516 -2.89466564 -0.33399988 0 0 Z " fill="#F7F1E4" transform="translate(91.125,97.4375)"/>
<path d="M0 0 C0 0.66 0 1.32 0 2 C-1.175625 2.1546875 -1.175625 2.1546875 -2.375 2.3125 C-5.33045181 2.77595022 -5.33045181 2.77595022 -7 6 C-7.54357271 8.11841588 -7.54357271 8.11841588 -7.8515625 10.44921875 C-7.98046875 11.29677734 -8.109375 12.14433594 -8.2421875 13.01757812 C-8.36851562 13.89865234 -8.49484375 14.77972656 -8.625 15.6875 C-8.7590625 16.58017578 -8.893125 17.47285156 -9.03125 18.39257812 C-9.36089627 20.59414427 -9.68353914 22.79650647 -10 25 C-10.99 25 -11.98 25 -13 25 C-12.88569952 22.1033852 -12.7589576 19.20821684 -12.625 16.3125 C-12.5940625 15.49587891 -12.563125 14.67925781 -12.53125 13.83789062 C-12.27566543 8.57710818 -12.00088609 4.14380653 -8.25 0.125 C-5.1895511 -1.40522445 -3.24839716 -0.81209929 0 0 Z " fill="#979CAA" transform="translate(154,16)"/>
<path d="M0 0 C0.66 0.33 1.32 0.66 2 1 C1.67 2.65 1.34 4.3 1 6 C4.465 5.505 4.465 5.505 8 5 C7.67 7.31 7.34 9.62 7 12 C6.34 12 5.68 12 5 12 C5 12.66 5 13.32 5 14 C1.97562661 15.5121867 -0.66241534 15.17263369 -4 15 C-6.4375 14 -6.4375 14 -8 13 C-5.42786866 11.38050989 -4.32330841 10.95591249 -1.25 11.375 C-0.5075 11.58125 0.235 11.7875 1 12 C1.66 10.68 2.32 9.36 3 8 C1.02 8 -0.96 8 -3 8 C-3.33 8.66 -3.66 9.32 -4 10 C-3.29445932 6.33118845 -1.72264494 3.29549466 0 0 Z " fill="#F6F0E4" transform="translate(157,66)"/>
<path d="M0 0 C0.29003091 5.60726423 0.13444318 9.1241995 -3 14 C-6.08888522 16.05925681 -6.70935927 16.2390374 -10.1875 16.125 C-11.445625 16.08375 -12.70375 16.0425 -14 16 C-13.67 15.34 -13.34 14.68 -13 14 C-9.9375 13.375 -9.9375 13.375 -7 13 C-6.01 9.7 -5.02 6.4 -4 3 C-5.32 3.33 -6.64 3.66 -8 4 C-4.5 0 -4.5 0 0 0 Z " fill="#F8F1E4" transform="translate(179,139)"/>
<path d="M0 0 C0.66 0.33 1.32 0.66 2 1 C1.93099487 2.02770508 1.93099487 2.02770508 1.8605957 3.07617188 C1.65994582 6.21659428 1.48604248 9.3579677 1.3125 12.5 C1.23966797 13.57765625 1.16683594 14.6553125 1.09179688 15.765625 C0.74536006 22.44981763 1.35283907 26.87844036 4 33 C3.97599004 35.49463516 3.56138564 37.55031722 3 40 C-1.40394469 31.5123975 -3.77440814 24.53966008 -1.65234375 15.046875 C-0.58995301 10.08481049 -0.34056537 5.054707 0 0 Z " fill="#63433B" transform="translate(141,96)"/>
<path d="M0 0 C5.75 0.875 5.75 0.875 8 2 C8.33 1.34 8.66 0.68 9 0 C9.433125 1.134375 9.86625 2.26875 10.3125 3.4375 C11.1478125 5.2009375 11.1478125 5.2009375 12 7 C12.99 7.33 13.98 7.66 15 8 C15 8.99 15 9.98 15 11 C14.01 11.66 13.02 12.32 12 13 C12 13.99 12 14.98 12 16 C11.34 16 10.68 16 10 16 C9.67 14.68 9.34 13.36 9 12 C7.35 12.33 5.7 12.66 4 13 C3.67 12.34 3.34 11.68 3 11 C4.32 10.34 5.64 9.68 7 9 C6.96906827 6.58414426 6.96906827 6.58414426 6 4 C3.03292954 2.14083176 3.03292954 2.14083176 0 1 C0 0.67 0 0.34 0 0 Z " fill="#EEE6D5" transform="translate(102,130)"/>
<path d="M0 0 C1.8125 2 1.8125 2 3 4 C2.3125 5.9375 2.3125 5.9375 1 8 C-1.78551984 9.02624415 -3.38814398 9.16996001 -6.25 8.375 C-8 7 -8 7 -8.75 4.375 C-8.8325 3.59125 -8.915 2.8075 -9 2 C-5.89608238 0.16064141 -3.60570855 -0.55472439 0 0 Z " fill="#F8F2E6" transform="translate(106,151)"/>
<path d="M0 0 C0.66 0 1.32 0 2 0 C2.40820882 10.09182907 1.16108676 19.99599356 0 30 C-0.33 30 -0.66 30 -1 30 C-1.33 28.02 -1.66 26.04 -2 24 C-2.33 24 -2.66 24 -3 24 C-3.25143256 17.46275332 -3.25143256 17.46275332 -1.99609375 15.15234375 C-0.66267703 12.27111783 -0.84139111 9.96871606 -0.9375 6.8125 C-0.99136681 4.87563691 -1.02051819 2.93750336 -1 1 C-0.67 0.67 -0.34 0.34 0 0 Z " fill="#9399A7" transform="translate(138,26)"/>
<path d="M0 0 C0.33 0 0.66 0 1 0 C1.23198695 7.41069414 0.99903176 14.69065987 0.25 22.0625 C0.18828613 22.78816162 0.12657227 23.51382324 0.06298828 24.26147461 C-0.46566428 28.95725023 -1.5646481 30.87589615 -5 34 C-4.55063217 29.83231602 -4.08889017 25.66609054 -3.625 21.5 C-3.49867188 20.32695312 -3.37234375 19.15390625 -3.2421875 17.9453125 C-2.55214326 11.80391877 -1.69280045 5.94688157 0 0 Z " fill="#D6D5D3" transform="translate(232,140)"/>
<path d="M0 0 C0.33 0.66 0.66 1.32 1 2 C3.02463255 2.65213292 3.02463255 2.65213292 5 3 C5 4.98 5 6.96 5 9 C3.68 9 2.36 9 1 9 C1 8.34 1 7.68 1 7 C0.34 7 -0.32 7 -1 7 C-1 9.31 -1 11.62 -1 14 C-1.99 14.33 -2.98 14.66 -4 15 C-4.63019694 5.98468271 -4.63019694 5.98468271 -2 1.875 C-1.34 1.25625 -0.68 0.6375 0 0 Z " fill="#F7EFE4" transform="translate(147,81)"/>
<path d="M0 0 C0.66 0.33 1.32 0.66 2 1 C2 1.66 2 2.32 2 3 C2.99 2.67 3.98 2.34 5 2 C5.66 3.65 6.32 5.3 7 7 C1.5 11 1.5 11 -3 11 C-2.88590407 9.54077307 -2.75834456 8.08259402 -2.625 6.625 C-2.55539063 5.81289062 -2.48578125 5.00078125 -2.4140625 4.1640625 C-2 2 -2 2 0 0 Z " fill="#DBCAB8" transform="translate(169,120)"/>
<path d="M0 0 C1.32 0 2.64 0 4 0 C4.21844686 5.35194818 3.82070245 10.56003312 3.1875 15.875 C3.03667969 17.17179687 2.88585938 18.46859375 2.73046875 19.8046875 C2 23 2 23 -1 25 C-1.07153047 22.49643341 -1.05975086 20.26141003 -0.5 17.8125 C0.13166234 14.25939934 0.10720679 10.78123822 0.0625 7.1875 C0.05798828 6.49462891 0.05347656 5.80175781 0.04882812 5.08789062 C0.03713156 3.39188932 0.01919924 1.69593297 0 0 Z " fill="#EBEBEA" transform="translate(49,57)"/>
<path d="M0 0 C2.85689594 4.28534391 2.34655647 7.96398073 1.5 12.9375 C1.335 13.618125 1.17 14.29875 1 15 C1.55171875 14.81566406 2.1034375 14.63132812 2.671875 14.44140625 C5.48460705 13.9081198 7.46535347 14.31461854 10.25 14.9375 C11.14203125 15.13214844 12.0340625 15.32679687 12.953125 15.52734375 C13.62859375 15.68332031 14.3040625 15.83929688 15 16 C15 13.69 15 11.38 15 9 C17.33760758 12.71267087 16.9611085 13.19445748 16 18 C10.39 17.34 4.78 16.68 -1 16 C-0.67 10.72 -0.34 5.44 0 0 Z " fill="#D7DFE7" transform="translate(140,26)"/>
<path d="M0 0 C4.52191751 0.44801684 9.04227498 0.91024132 13.5625 1.375 C15.47772461 1.56449219 15.47772461 1.56449219 17.43164062 1.7578125 C23.48738902 2.38698116 29.23263631 3.00527271 35 5 C35 5.33 35 5.66 35 6 C32.36 6.33 29.72 6.66 27 7 C27 6.34 27 5.68 27 5 C26.06800781 4.95101562 25.13601562 4.90203125 24.17578125 4.8515625 C15.68221661 4.35345659 7.39392703 3.45796709 -1 2 C-0.67 1.34 -0.34 0.68 0 0 Z " fill="#D4D3D1" transform="translate(89,247)"/>
<path d="M0 0 C1.58158962 3.00887781 2.43945339 5.63672037 3 9 C5.64 9 8.28 9 11 9 C11 9.33 11 9.66 11 10 C6.545 10.495 6.545 10.495 2 11 C1.86722656 11.71027344 1.73445312 12.42054688 1.59765625 13.15234375 C1.33275391 14.53099609 1.33275391 14.53099609 1.0625 15.9375 C0.88847656 16.85402344 0.71445313 17.77054687 0.53515625 18.71484375 C0 21 0 21 -1 22 C-3.33297433 22.04092937 -5.66705225 22.04241723 -8 22 C-8 21.67 -8 21.34 -8 21 C-6.02 21 -4.04 21 -2 21 C-1.93941406 20.32195312 -1.87882813 19.64390625 -1.81640625 18.9453125 C-1.24751812 12.62627825 -0.64350907 6.31186556 0 0 Z " fill="#DADAD8" transform="translate(217,243)"/>
<path d="M0 0 C5.54260507 -0.08718705 10.87752971 0.18394839 16.375 0.875 C17.08527344 0.95363281 17.79554687 1.03226563 18.52734375 1.11328125 C23.75848891 1.75848891 23.75848891 1.75848891 26 4 C21.46298506 5.45184478 17.81938524 6.23509196 13 6 C12.67 5.01 12.34 4.02 12 3 C6.06 2.01 6.06 2.01 0 1 C0 0.67 0 0.34 0 0 Z " fill="#D7D7D6" transform="translate(48,242)"/>
<path d="M0 0 C0.33 0 0.66 0 1 0 C1.268125 1.258125 1.53625 2.51625 1.8125 3.8125 C3.04838691 8.74734422 4.79952079 10.19968053 9 13 C8.34 14.65 7.68 16.3 7 18 C5.125 17.875 5.125 17.875 3 17 C1.875 14 1.875 14 1 11 C0.34 10.67 -0.32 10.34 -1 10 C-0.67 6.7 -0.34 3.4 0 0 Z " fill="#E9E8DD" transform="translate(133,56)"/>
<path d="M0 0 C3 1 3 1 5 4 C8.10811287 4.80541207 8.10811287 4.80541207 11.625 5.1875 C12.81351563 5.34605469 14.00203125 5.50460938 15.2265625 5.66796875 C16.59941406 5.83232422 16.59941406 5.83232422 18 6 C17.01 6.495 17.01 6.495 16 7 C16 7.66 16 8.32 16 9 C9.64549677 7.75297849 3.31672565 6.42635741 -3 5 C-2.01 3.35 -1.02 1.7 0 0 Z " fill="#856C6A" transform="translate(108,155)"/>
<path d="M0 0 C0.66 0 1.32 0 2 0 C2.66 1.65 3.32 3.3 4 5 C5.65 4.01 7.3 3.02 9 2 C9.33 2.99 9.66 3.98 10 5 C7.71823587 7.07384637 6.55676517 7.98397191 3.421875 8.07421875 C2.54015625 7.94660156 1.6584375 7.81898437 0.75 7.6875 C-0.58804688 7.50767578 -0.58804688 7.50767578 -1.953125 7.32421875 C-2.96632812 7.16373047 -2.96632812 7.16373047 -4 7 C-2.68 4.69 -1.36 2.38 0 0 Z " fill="#F0EBE4" transform="translate(144,58)"/>
<path d="M0 0 C2.5 0.3125 2.5 0.3125 5 1 C7.19108767 5.38217535 6.27378604 10.90485585 5.125 15.5 C4 18 4 18 2 19 C2.20625 18.21625 2.4125 17.4325 2.625 16.625 C3.11686353 11.87031922 2.4039643 7.56493654 1 3 C0.34 2.34 -0.32 1.68 -1 1 C-0.67 0.67 -0.34 0.34 0 0 Z " fill="#9298A7" transform="translate(156,17)"/>
<path d="M0 0 C0.33 0 0.66 0 1 0 C1.16435547 1.14275391 1.16435547 1.14275391 1.33203125 2.30859375 C2.33448622 8.83677611 3.72636513 14.79917763 6 21 C5.01 20.67 4.02 20.34 3 20 C2.05078125 17.27734375 2.05078125 17.27734375 1.3125 13.9375 C0.93544922 12.28041016 0.93544922 12.28041016 0.55078125 10.58984375 C0.36902344 9.73519531 0.18726563 8.88054687 0 8 C-1.32 7.67 -2.64 7.34 -4 7 C-4 5.35 -4 3.7 -4 2 C-3.34 2.66 -2.68 3.32 -2 4 C-1.34 2.68 -0.68 1.36 0 0 Z " fill="#EAE1D1" transform="translate(146,130)"/>
<path d="M0 0 C0.33 0 0.66 0 1 0 C1.19658945 5.70109404 1.36044858 10.87240563 -2.25 15.65625 C-4.63904836 17.49069785 -6.21445408 17.30333296 -9.1875 17.1875 C-10.53908203 17.14689453 -10.53908203 17.14689453 -11.91796875 17.10546875 C-12.60503906 17.07066406 -13.29210937 17.03585938 -14 17 C-14 16.67 -14 16.34 -14 16 C-11.69 16 -9.38 16 -7 16 C-7 15.34 -7 14.68 -7 14 C-5.33333333 12.33333333 -3.66666667 10.66666667 -2 9 C-0.86165035 6.11199733 -0.86165035 6.11199733 -1 3.375 C-1 1 -1 1 0 0 Z " fill="#888E99" transform="translate(157,51)"/>
<path d="M0 0 C0.66 0.33 1.32 0.66 2 1 C2.08204081 5.18408142 1.9171921 8.92359066 1 13 C0.65596692 15.33177975 0.32050798 17.66487041 0 20 C-0.99 20.33 -1.98 20.66 -3 21 C-2.58169634 13.77875787 -2.04538889 6.95432222 0 0 Z " fill="#D7D6D4" transform="translate(227,176)"/>
<path d="M0 0 C2.29576678 2.29576678 3.0638375 3.90346249 4 7 C3.68564441 10.37932259 3.42520546 11.57479454 1 14 C0.35232207 16.57061311 0.35232207 16.57061311 0 19 C-0.99 17.68 -1.98 16.36 -3 15 C-2.52433594 14.18789062 -2.52433594 14.18789062 -2.0390625 13.359375 C-0.81692026 10.5842851 -0.59056564 8.26791902 -0.375 5.25 C-0.30023438 4.26515625 -0.22546875 3.2803125 -0.1484375 2.265625 C-0.09945312 1.51796875 -0.05046875 0.7703125 0 0 Z " fill="#F3E7D6" transform="translate(112,76)"/>
<path d="M0 0 C2.31476699 3.58443395 2.00561145 5.94237538 1.25 10.0625 C1.06953125 11.10535156 0.8890625 12.14820313 0.703125 13.22265625 C0 16 0 16 -2 19 C-2 15.04 -2 11.08 -2 7 C-2.99 7 -3.98 7 -5 7 C-5 6.01 -5 5.02 -5 4 C-2.5 1.8125 -2.5 1.8125 0 0 Z " fill="#EAE1CD" transform="translate(165,128)"/>
<path d="M0 0 C3.1017144 4.6525716 5.52232988 9.29532915 4.6875 15 C4.460625 15.99 4.23375 16.98 4 18 C2.31945639 14.89576443 1.26010501 11.83501066 0.3125 8.4375 C0.04050781 7.48746094 -0.23148438 6.53742188 -0.51171875 5.55859375 C-1 3 -1 3 0 0 Z " fill="#72564E" transform="translate(140,118)"/>
<path d="M0 0 C0.66 0 1.32 0 2 0 C1.67 4.62 1.34 9.24 1 14 C0.01 14 -0.98 14 -2 14 C-2.1799928 8.78020872 -1.97094808 4.92737019 0 0 Z " fill="#9398A6" transform="translate(154,28)"/>
<path d="M0 0 C1.98 0.99 1.98 0.99 4 2 C4.99 1.34 5.98 0.68 7 0 C7.25532751 3.06393013 7.21861333 4.63233212 5.625 7.3125 C4.820625 8.1478125 4.820625 8.1478125 4 9 C3.34 9 2.68 9 2 9 C0.14223235 5.86501708 -0.20140476 3.62528568 0 0 Z " fill="#63443B" transform="translate(153,155)"/>
<path d="M0 0 C0.433125 0.45375 0.86625 0.9075 1.3125 1.375 C3.10798342 3.20024334 3.10798342 3.20024334 6 5 C5.34 6.65 4.68 8.3 4 10 C3.34 10 2.68 10 2 10 C2 9.01 2 8.02 2 7 C1.34 7 0.68 7 0 7 C0 8.98 0 10.96 0 13 C-0.33 13 -0.66 13 -1 13 C-2.0070238 7.96488101 -1.97387813 4.76052962 0 0 Z " fill="#E6D8CB" transform="translate(143,69)"/>
<path d="M0 0 C3.9252025 3.70090521 6.94580156 7.54959656 10 12 C9.34 13.32 8.68 14.64 8 16 C7.59007813 15.28972656 7.18015625 14.57945312 6.7578125 13.84765625 C6.21898438 12.92855469 5.68015625 12.00945312 5.125 11.0625 C4.32449219 9.68771484 4.32449219 9.68771484 3.5078125 8.28515625 C2.20287437 5.89299704 2.20287437 5.89299704 0 5 C0 3.35 0 1.7 0 0 Z " fill="#745D58" transform="translate(116,144)"/>
<path d="M0 0 C2.1270011 0.25464098 4.25162215 0.52922942 6.375 0.8125 C8.15003906 1.03873047 8.15003906 1.03873047 9.9609375 1.26953125 C13 2 13 2 15 5 C4.44191344 5.3690205 4.44191344 5.3690205 0 3 C0 2.01 0 1.02 0 0 Z " fill="#95979F" transform="translate(137,64)"/>
<path d="M0 0 C0.66 0.66 1.32 1.32 2 2 C0.56570999 2.67354499 -0.87257057 3.33859701 -2.3125 4 C-3.11300781 4.37125 -3.91351563 4.7425 -4.73828125 5.125 C-7 6 -7 6 -10 6 C-10 5.34 -10 4.68 -10 4 C-8.68 3.67 -7.36 3.34 -6 3 C-8.31 2.67 -10.62 2.34 -13 2 C-13 1.67 -13 1.34 -13 1 C-10.87631556 0.77865824 -8.75095976 0.57329993 -6.625 0.375 C-5.44164063 0.25898437 -4.25828125 0.14296875 -3.0390625 0.0234375 C-2.03617188 0.01570313 -1.03328125 0.00796875 0 0 Z " fill="#F1EAD8" transform="translate(101,96)"/>
<path d="M0 0 C2.15502531 3.23253796 2.46856135 4.25150923 2 8 C0.75 9.5625 0.75 9.5625 -1 11 C-1.721875 11.721875 -2.44375 12.44375 -3.1875 13.1875 C-4.0846875 14.0846875 -4.0846875 14.0846875 -5 15 C-5 13.02 -5 11.04 -5 9 C-4.01 8.67 -3.02 8.34 -2 8 C-1.19787372 6.12612784 -1.19787372 6.12612784 -0.8125 3.9375 C-0.65394531 3.20402344 -0.49539062 2.47054687 -0.33203125 1.71484375 C-0.22246094 1.14894531 -0.11289063 0.58304688 0 0 Z " fill="#E2E0D7" transform="translate(157,59)"/>
<path d="M0 0 C0.66 0 1.32 0 2 0 C2.804375 1.11375 2.804375 1.11375 3.625 2.25 C6.63003033 5.7295088 9.84130388 7.19318785 14 9 C11.61519919 9.83414558 10.36680914 10.11903995 7.9296875 9.328125 C7.25164062 8.97234375 6.57359375 8.6165625 5.875 8.25 C5.19179687 7.90453125 4.50859375 7.5590625 3.8046875 7.203125 C2 6 2 6 0 3 C0 2.01 0 1.02 0 0 Z " fill="#F6F1E5" transform="translate(176,130)"/>
<path d="M0 0 C2.67927341 4.01891012 2.15601248 6.24161923 2 11 C-1 10 -1 10 -2.75 7.125 C-4 4 -4 4 -3 1 C-2.01 1.99 -1.02 2.98 0 4 C0 2.68 0 1.36 0 0 Z " fill="#F1E8D4" transform="translate(158,106)"/>
<path d="M0 0 C0.66 0 1.32 0 2 0 C2.19456705 1.95764383 2.38044247 3.91615321 2.5625 5.875 C2.66691406 6.96554688 2.77132812 8.05609375 2.87890625 9.1796875 C3 12 3 12 2 14 C1.34 13.67 0.68 13.34 0 13 C-0.35179197 10.6693782 -0.68330179 8.33564933 -1 6 C-1.95584438 3.66411677 -1.95584438 3.66411677 -3 2 C-2.01 2.33 -1.02 2.66 0 3 C0 2.01 0 1.02 0 0 Z " fill="#7A6159" transform="translate(126,96)"/>
<path d="M0 0 C2.78637633 4.1795645 1.79562512 6.14668677 1 11 C0.01 11.33 -0.98 11.66 -2 12 C-2.05395478 10.37536158 -2.09277195 8.75021459 -2.125 7.125 C-2.14820313 6.22007813 -2.17140625 5.31515625 -2.1953125 4.3828125 C-2 2 -2 2 0 0 Z " fill="#FAF2EF" transform="translate(145,84)"/>
<path d="M0 0 C0.99 0.33 1.98 0.66 3 1 C3 1.66 3 2.32 3 3 C4.32 3 5.64 3 7 3 C7 3.66 7 4.32 7 5 C7.99 5 8.98 5 10 5 C10 5.66 10 6.32 10 7 C6.6875 7.3125 6.6875 7.3125 3 7 C1.04421883 4.60259082 0 3.12413392 0 0 Z " fill="#E8DFCA" transform="translate(139,147)"/>
<path d="M0 0 C0.33 1.32 0.66 2.64 1 4 C2.32 4 3.64 4 5 4 C5 4.66 5 5.32 5 6 C2 8 2 8 -2 8 C-2.125 5.125 -2.125 5.125 -2 2 C-1.34 1.34 -0.68 0.68 0 0 Z " fill="#6A4C44" transform="translate(168,123)"/>
<path d="M0 0 C1.65 0.33 3.3 0.66 5 1 C3.33248852 4.94139078 0.77289351 7.7892812 -2 11 C-2.66 10.34 -3.32 9.68 -4 9 C-3.67 8.01 -3.34 7.02 -3 6 C-3 6.66 -3 7.32 -3 8 C-2.34 7.67 -1.68 7.34 -1 7 C-0.59270772 4.67843403 -0.25561323 2.3431213 0 0 Z " fill="#7B655E" transform="translate(146,88)"/>
<path d="M0 0 C3.3 0 6.6 0 10 0 C9.01 0.495 9.01 0.495 8 1 C8 2.32 8 3.64 8 5 C4.5625 4.1875 4.5625 4.1875 1 3 C0.67 2.01 0.34 1.02 0 0 Z " fill="#F7F1E0" transform="translate(144,69)"/>
<path d="M0 0 C1.9375 0.8125 1.9375 0.8125 4 2 C4.33 2.99 4.66 3.98 5 5 C4.34 5 3.68 5 3 5 C3 5.99 3 6.98 3 8 C1.68 8 0.36 8 -1 8 C-1.125 2.25 -1.125 2.25 0 0 Z " fill="#F0E8DC" transform="translate(123,91)"/>
<path d="M0 0 C0.33 0 0.66 0 1 0 C1.16873478 1.43725871 1.33490737 2.87481838 1.5 4.3125 C1.5928125 5.11300781 1.685625 5.91351563 1.78125 6.73828125 C2 9 2 9 2 12 C2.3062434 13.33981486 2.63451555 14.67511887 3 16 C1.66666667 16 0.33333333 16 -1 16 C-1.33 13.03 -1.66 10.06 -2 7 C-1.67 7 -1.34 7 -1 7 C-0.67 4.69 -0.34 2.38 0 0 Z " fill="#B0B8C4" transform="translate(158,22)"/>
<path d="M0 0 C1.32 0 2.64 0 4 0 C6 3 6 3 6 7 C5.01 7.66 4.02 8.32 3 9 C3 8.34 3 7.68 3 7 C1.68 6.67 0.36 6.34 -1 6 C0.32 4.35 1.64 2.7 3 1 C2.01 0.67 1.02 0.34 0 0 Z " fill="#7B5853" transform="translate(124,164)"/>
<path d="M0 0 C1.65 0 3.3 0 5 0 C5.33 1.32 5.66 2.64 6 4 C7.32 4 8.64 4 10 4 C10 4.66 10 5.32 10 6 C10.66 6.33 11.32 6.66 12 7 C7.02125936 6.52583422 3.93281242 5.0900669 0 2 C0 1.34 0 0.68 0 0 Z " fill="#E6DFCC" transform="translate(180,132)"/>
<path d="M0 0 C5.75 0.875 5.75 0.875 8 2 C8.33 1.34 8.66 0.68 9 0 C11.56687367 3.8503105 10.83288724 5.58569763 10 10 C9.75507812 9.39542969 9.51015625 8.79085937 9.2578125 8.16796875 C7.77192954 5.6068972 6.42835766 4.7630634 3.875 3.3125 C2.57085804 2.56296645 1.27521703 1.79775205 0 1 C0 0.67 0 0.34 0 0 Z " fill="#E8E0CD" transform="translate(102,130)"/>
<path d="M0 0 C2.60444348 -0.05394705 5.20776998 -0.09364469 7.8125 -0.125 C8.55048828 -0.14175781 9.28847656 -0.15851562 10.04882812 -0.17578125 C13.91246426 -0.21074628 15.70903668 -0.19397555 19 2 C16 4 16 4 13.8125 3.625 C13.214375 3.41875 12.61625 3.2125 12 3 C12.66 3 13.32 3 14 3 C14 2.34 14 1.68 14 1 C9.38 1 4.76 1 0 1 C0 0.67 0 0.34 0 0 Z " fill="#E6E6E5" transform="translate(176,45)"/>
<path d="M0 0 C0.66 0 1.32 0 2 0 C2.33 2.64 2.66 5.28 3 8 C1.35 8 -0.3 8 -2 8 C-1.34 5.36 -0.68 2.72 0 0 Z " fill="#E9E1CE" transform="translate(188,110)"/>
<path d="M0 0 C1.32 0.33 2.64 0.66 4 1 C7.15759312 6.77077364 7.15759312 6.77077364 6.6875 10.4375 C6.460625 10.953125 6.23375 11.46875 6 12 C6 11.34 6 10.68 6 10 C5.34 10 4.68 10 4 10 C2.68 6.7 1.36 3.4 0 0 Z " fill="#EAE2CF" transform="translate(102,76)"/>
<path d="M0 0 C1.77706209 2.66559313 2.87548273 5.0280615 4 8 C3 9 3 9 0.4375 9.0625 C-0.366875 9.041875 -1.17125 9.02125 -2 9 C-1.34 6.03 -0.68 3.06 0 0 Z " fill="#6E4E49" transform="translate(109,196)"/>
<path d="M0 0 C0.66 0.99 1.32 1.98 2 3 C1.34 3 0.68 3 0 3 C0.33 4.65 0.66 6.3 1 8 C0.34 8 -0.32 8 -1 8 C-1.33 9.65 -1.66 11.3 -2 13 C-2.66 13 -3.32 13 -4 13 C-3.71517632 11.58194169 -3.42181856 10.16559621 -3.125 8.75 C-2.96257812 7.96109375 -2.80015625 7.1721875 -2.6328125 6.359375 C-2.00849925 4.03168856 -1.15161458 2.10968048 0 0 Z " fill="#785851" transform="translate(114,183)"/>
<path d="M0 0 C0.66 0 1.32 0 2 0 C0.48328036 4.55015893 -3.16891053 6.50057264 -7 9 C-7.66 8.34 -8.32 7.68 -9 7 C-8.43410156 6.57847656 -7.86820313 6.15695313 -7.28515625 5.72265625 C-6.55167969 5.17480469 -5.81820312 4.62695312 -5.0625 4.0625 C-4.33160156 3.51722656 -3.60070312 2.97195312 -2.84765625 2.41015625 C-1.0865547 1.13092062 -1.0865547 1.13092062 0 0 Z " fill="#705455" transform="translate(154,164)"/>
<path d="M0 0 C1.46022163 0.95545366 2.91811468 1.91446678 4.375 2.875 C5.18710938 3.40867187 5.99921875 3.94234375 6.8359375 4.4921875 C9 6 9 6 11 8 C10.34 8 9.68 8 9 8 C8.67 8.66 8.34 9.32 8 10 C7.13375 9.1028125 7.13375 9.1028125 6.25 8.1875 C4.10224272 5.98007214 4.10224272 5.98007214 1.75 4.4375 C0.88375 3.7259375 0.88375 3.7259375 0 3 C0 2.01 0 1.02 0 0 Z " fill="#7A5F5C" transform="translate(113,100)"/>
<path d="M0 0 C4.29 0.66 8.58 1.32 13 2 C9.54785147 4.30143236 8.76520676 4.13833854 4.8125 3.625 C3.46091797 3.45871094 3.46091797 3.45871094 2.08203125 3.2890625 C1.39496094 3.19367187 0.70789063 3.09828125 0 3 C0 2.01 0 1.02 0 0 Z " fill="#E2E2E2" transform="translate(160,42)"/>
<path d="M0 0 C3.63 0.66 7.26 1.32 11 2 C11 2.33 11 2.66 11 3 C7.04 3 3.08 3 -1 3 C-0.67 2.01 -0.34 1.02 0 0 Z " fill="#E6E4E3" transform="translate(40,200)"/>
<path d="M0 0 C1.32 0.33 2.64 0.66 4 1 C2.95125002 3.62187494 2.35068687 4.79371361 -0.125 6.25 C-0.74375 6.4975 -1.3625 6.745 -2 7 C-1.34 4.69 -0.68 2.38 0 0 Z " fill="#F9F7F2" transform="translate(162,125)"/>
<path d="M0 0 C0.9075 0.226875 1.815 0.45375 2.75 0.6875 C2.75 1.3475 2.75 2.0075 2.75 2.6875 C1.96625 2.831875 1.1825 2.97625 0.375 3.125 C-2.21421018 3.56548925 -2.21421018 3.56548925 -4.25 4.6875 C-5.24 4.0275 -6.23 3.3675 -7.25 2.6875 C-4.61280971 0.1517401 -3.74095095 -0.35970682 0 0 Z " fill="#A7ACB9" transform="translate(151.25,15.3125)"/>
<path d="M0 0 C1.98 0.99 1.98 0.99 4 2 C4.33 1.34 4.66 0.68 5 0 C5.66 0.33 6.32 0.66 7 1 C6.3125 2.9375 6.3125 2.9375 5 5 C2.375 5.75 2.375 5.75 0 6 C0 4.02 0 2.04 0 0 Z " fill="#EFE3D2" transform="translate(102,154)"/>
<path d="M0 0 C1.61949011 2.57213134 2.04408751 3.67669159 1.625 6.75 C1.41875 7.4925 1.2125 8.235 1 9 C-1.97 8.67 -4.94 8.34 -8 8 C-8 7.67 -8 7.34 -8 7 C-5.36 7 -2.72 7 0 7 C0 4.69 0 2.38 0 0 Z " fill="#D0D4DE" transform="translate(155,35)"/>
<path d="M0 0 C1.32 0 2.64 0 4 0 C3.50168276 3.68754757 2.89932357 5.60490662 0 8 C0 5.36 0 2.72 0 0 Z " fill="#9095A4" transform="translate(143,19)"/>
<path d="M0 0 C0.66 0 1.32 0 2 0 C3.42944945 2.35438733 4.08661261 3.48032433 3.625 6.25 C3.41875 6.8275 3.2125 7.405 3 8 C3 7.34 3 6.68 3 6 C1.68 6 0.36 6 -1 6 C-0.67 4.02 -0.34 2.04 0 0 Z " fill="#633F38" transform="translate(125,158)"/>
<path d="M0 0 C1.32 0.33 2.64 0.66 4 1 C3.67 2.32 3.34 3.64 3 5 C2.34 5 1.68 5 1 5 C0.01 5.495 0.01 5.495 -1 6 C-1.33 5.01 -1.66 4.02 -2 3 C-1.34 2.01 -0.68 1.02 0 0 Z " fill="#D2C2B0" transform="translate(157,152)"/>
<path d="M0 0 C0.33 0 0.66 0 1 0 C1 2.64 1 5.28 1 8 C-0.65 7.67 -2.3 7.34 -4 7 C-4 5.02 -4 3.04 -4 1 C-3.67 2.32 -3.34 3.64 -3 5 C-2.34 5 -1.68 5 -1 5 C-0.67 3.35 -0.34 1.7 0 0 Z " fill="#DDDDDD" transform="translate(240,103)"/>
<path d="M0 0 C0.99 1.485 0.99 1.485 2 3 C2.66 2.34 3.32 1.68 4 1 C3.6875 3.875 3.6875 3.875 3 7 C2.01 7.66 1.02 8.32 0 9 C0 6.03 0 3.06 0 0 Z " fill="#9DA3B0" transform="translate(142,23)"/>
<path d="M0 0 C2.97 0.33 5.94 0.66 9 1 C9 1.66 9 2.32 9 3 C6.1875 3.625 6.1875 3.625 3 4 C2.01 3.34 1.02 2.68 0 2 C0 1.34 0 0.68 0 0 Z " fill="#E5E4E2" transform="translate(71,204)"/>
<path d="M0 0 C0.99 0.33 1.98 0.66 3 1 C3.6875 3.0625 3.6875 3.0625 4 5 C1.69 5 -0.62 5 -3 5 C-2.01 3.35 -1.02 1.7 0 0 Z " fill="#6C4E46" transform="translate(108,155)"/>
<path d="M0 0 C-0.66 1.32 -1.32 2.64 -2 4 C-3.32 4 -4.64 4 -6 4 C-6.33 3.01 -6.66 2.02 -7 1 C-4 0 -4 0 0 0 Z " fill="#E7DDC8" transform="translate(100,100)"/>
<path d="M0 0 C0.66 0.99 1.32 1.98 2 3 C-0.35968744 5.09749995 -1.54616994 5.96905704 -4.75 6.1875 C-5.86375 6.0946875 -5.86375 6.0946875 -7 6 C-5.68 5.67 -4.36 5.34 -3 5 C-3 4.01 -3 3.02 -3 2 C-2.01 1.34 -1.02 0.68 0 0 Z " fill="#E5E5E4" transform="translate(152,60)"/>
<path d="M0 0 C0 0.99 0 1.98 0 3 C-1.75 3.6875 -1.75 3.6875 -4 4 C-6.25 2.5625 -6.25 2.5625 -8 1 C-2.25 -1.125 -2.25 -1.125 0 0 Z " fill="#775352" transform="translate(132,178)"/>
<path d="M0 0 C1.65 1.65 3.3 3.3 5 5 C4.34 6.32 3.68 7.64 3 9 C0 3.375 0 3.375 0 0 Z " fill="#6B4E4C" transform="translate(121,151)"/>
<path d="M0 0 C0.33 0.99 0.66 1.98 1 3 C0.67 3.66 0.34 4.32 0 5 C-1.65 5 -3.3 5 -5 5 C-4 2 -4 2 -1.9375 0.8125 C-1.298125 0.544375 -0.65875 0.27625 0 0 Z " fill="#E4DBCA" transform="translate(172,147)"/>
<path d="M0 0 C0.33 0.66 0.66 1.32 1 2 C0.67 2.99 0.34 3.98 0 5 C-0.66 5 -1.32 5 -2 5 C-2 5.66 -2 6.32 -2 7 C-2.99 7 -3.98 7 -5 7 C-5 6.01 -5 5.02 -5 4 C-2.5 1.8125 -2.5 1.8125 0 0 Z " fill="#D2C2B7" transform="translate(165,128)"/>
<path d="M0 0 C0.66 0 1.32 0 2 0 C2.33 1.98 2.66 3.96 3 6 C2.01 6.33 1.02 6.66 0 7 C0 4.69 0 2.38 0 0 Z " fill="#E5DBC8" transform="translate(113,81)"/>
<path d="M0 0 C0.99 0 1.98 0 3 0 C2.34 2.64 1.68 5.28 1 8 C0.34 7.67 -0.32 7.34 -1 7 C-0.67 4.69 -0.34 2.38 0 0 Z " fill="#67483F" transform="translate(115,187)"/>
<path d="M0 0 C0.99 0.33 1.98 0.66 3 1 C3.33 2.65 3.66 4.3 4 6 C2.68 5.67 1.36 5.34 0 5 C0 3.35 0 1.7 0 0 Z " fill="#6D5149" transform="translate(153,155)"/>
<path d="M0 0 C1.98 0.99 1.98 0.99 4 2 C3.34 3.65 2.68 5.3 2 7 C0 4 0 4 0 0 Z " fill="#F5F3EB" transform="translate(94,76)"/>
</svg>
