<svg width="52" height="52" viewBox="0 0 52 52" fill="none" xmlns="http://www.w3.org/2000/svg">
<rect x="0.5" y="0.5" width="51" height="51" rx="6.5" fill="white"/>
<rect x="0.5" y="0.5" width="51" height="51" rx="6.5" stroke="#C5C5C5"/>
<path d="M32.6713 16.6266C32.5628 16.3648 32.3534 16.1645 32.0959 16.0763L32.094 16.0756L32.0922 16.075L32.0884 16.0737L32.0805 16.0711L32.0636 16.0658C32.0518 16.0622 32.039 16.0586 32.0252 16.0549C31.9976 16.0475 31.966 16.0401 31.9305 16.0332C31.8593 16.0194 31.7728 16.0079 31.6708 16.0028C31.466 15.9926 31.2037 16.0086 30.8817 16.0805C30.3447 16.2005 29.6476 16.4746 28.7724 17.0363C28.7152 17.073 28.6572 17.111 28.5985 17.1502C28.5397 17.1356 28.4809 17.1215 28.422 17.108C26.8261 16.7408 25.1742 16.7408 23.5783 17.108C23.5193 17.1216 23.4605 17.1356 23.4017 17.1502C23.343 17.111 23.285 17.073 23.2278 17.0363C22.3516 16.4743 21.6529 16.2003 21.1146 16.0804C20.7918 16.0085 20.5289 15.9926 20.324 16.0028C20.2219 16.0078 20.1354 16.0193 20.0643 16.033C20.0288 16.0398 19.9973 16.0472 19.9698 16.0545C19.9561 16.0581 19.9434 16.0618 19.9316 16.0653L19.9148 16.0706L19.907 16.0731L19.9032 16.0744L19.9014 16.075L19.8995 16.0756C19.6398 16.164 19.4288 16.3662 19.3205 16.6306C18.9172 17.6154 18.8101 18.7013 19.0044 19.7431C19.0138 19.7937 19.0239 19.8442 19.0348 19.8946C18.9932 19.9537 18.9527 20.0137 18.9134 20.0744C18.3077 21.0109 17.9855 22.1279 18.0006 23.2749C18.0021 25.7315 18.7197 27.4139 19.9332 28.4965C20.6201 29.1093 21.4174 29.4844 22.2187 29.7208C22.3104 29.7479 22.4022 29.7731 22.4938 29.7967C22.4804 29.8432 22.468 29.8901 22.4564 29.9373C22.4079 30.1357 22.3757 30.3394 22.3608 30.5461C22.3595 30.5648 22.3586 30.5835 22.3583 30.6022L22.3244 32.421L22.3242 32.4407C22.3242 32.4464 22.3242 32.4521 22.3242 32.4577C22.2626 32.473 22.2001 32.4843 22.1368 32.4916C21.942 32.5141 21.7447 32.4977 21.5561 32.4434C21.3675 32.3891 21.1913 32.2979 21.0375 32.1749C20.8838 32.0519 20.7555 31.8994 20.6603 31.7261L20.6505 31.7087C20.3884 31.2535 20.0263 30.8639 19.5914 30.5695C19.1566 30.275 18.6604 30.0836 18.1405 30.0099C17.5937 29.9324 17.0875 30.3128 17.01 30.8597C16.9325 31.4065 17.313 31.9126 17.8598 31.9901C18.0782 32.0211 18.2869 32.1015 18.4701 32.2256C18.6512 32.3482 18.8028 32.5103 18.9134 32.7C19.1346 33.0992 19.4317 33.4514 19.788 33.7365C20.1475 34.0242 20.5603 34.2379 21.0027 34.3653C21.4335 34.4893 21.8839 34.5291 22.3295 34.4825C22.3304 34.7224 22.331 34.9065 22.331 35C22.331 35.5523 22.7552 36 23.2785 36H28.7558C29.279 36 29.7032 35.5523 29.7032 35V31.2095C29.729 30.7802 29.685 30.3499 29.5738 29.9373C29.5585 29.8805 29.5419 29.824 29.5241 29.7679C29.5838 29.753 29.6435 29.7373 29.7032 29.7208C30.5277 29.4937 31.3513 29.1224 32.0588 28.4983C33.2791 27.4217 33.9982 25.7379 33.9996 23.2749C34.0147 22.1279 33.6925 21.0109 33.0868 20.0744C33.0475 20.0136 33.007 19.9535 32.9652 19.8943C32.976 19.844 32.9861 19.7936 32.9955 19.7431C33.1893 18.6993 33.0795 17.6114 32.6713 16.6266Z" fill="#444444"/>
</svg>
